<svg width="59" height="61" viewBox="0 0 59 61" fill="none" xmlns="http://www.w3.org/2000/svg">
<path d="M54.3001 34.4496C53.8736 26.1762 49.3734 18.6998 42.262 14.4504C42.1459 14.381 42.0173 14.3351 41.8834 14.3155C41.7496 14.2958 41.6132 14.3027 41.4821 14.3357C41.3509 14.3688 41.2275 14.4273 41.119 14.5081C41.0105 14.5888 40.9189 14.6901 40.8496 14.8062C40.7802 14.9223 40.7344 15.051 40.7147 15.1848C40.695 15.3186 40.7019 15.455 40.735 15.5861C40.768 15.7173 40.8266 15.8407 40.9073 15.9492C40.988 16.0577 41.0893 16.1493 41.2054 16.2187C47.7257 20.1149 51.8519 26.97 52.2429 34.5558C52.2499 34.6908 52.2834 34.8232 52.3415 34.9454C52.3997 35.0675 52.4813 35.177 52.5817 35.2675C52.6822 35.3581 52.7995 35.428 52.927 35.4733C53.0544 35.5185 53.1895 35.5382 53.3246 35.5313C53.4597 35.5243 53.5921 35.4908 53.7142 35.4326C53.8363 35.3745 53.9458 35.2929 54.0364 35.1924C54.127 35.092 54.1969 34.9747 54.2421 34.8472C54.2874 34.7198 54.3071 34.5846 54.3001 34.4496ZM17.1884 16.6565C10.8145 20.7881 6.94087 27.789 6.8268 35.3838C6.82274 35.6543 6.7125 35.9122 6.51987 36.102C6.32723 36.2918 6.06768 36.3983 5.79724 36.3983L5.78141 36.3982C5.50829 36.3941 5.24798 36.2817 5.05775 36.0857C4.86752 35.8896 4.76295 35.6261 4.76704 35.3529C4.89153 27.0696 9.11611 19.4341 16.0678 14.928C16.1813 14.8544 16.3082 14.8039 16.4412 14.7794C16.5742 14.7548 16.7107 14.7567 16.843 14.785C16.9753 14.8132 17.1007 14.8672 17.2121 14.9439C17.3235 15.0206 17.4187 15.1185 17.4922 15.232C17.5659 15.3455 17.6164 15.4723 17.641 15.6053C17.6655 15.7383 17.6636 15.8749 17.6354 16.0072C17.6072 16.1395 17.5532 16.2649 17.4765 16.3763C17.3998 16.4877 17.3019 16.5829 17.1884 16.6565ZM19.2147 55.9643C25.9796 59.4186 33.9793 59.2726 40.6138 55.5741C40.8524 55.4411 41.1341 55.4083 41.3968 55.4829C41.6596 55.5576 41.8819 55.7336 42.0149 55.9722C42.148 56.2107 42.1807 56.4924 42.1061 56.7552C42.0314 57.0179 41.8555 57.2403 41.6169 57.3733C37.8629 59.466 33.7096 60.5156 29.5501 60.5156C25.6919 60.5156 21.8282 59.6117 18.2778 57.7989C18.1574 57.7374 18.0502 57.6527 17.9625 57.5498C17.8747 57.4469 17.8081 57.3277 17.7664 57.199C17.7247 57.0703 17.7088 56.9347 17.7195 56.7999C17.7303 56.665 17.7675 56.5336 17.829 56.4132C17.8905 56.2927 17.9751 56.1855 18.0781 56.0978C18.181 56.01 18.3002 55.9434 18.4289 55.9017C18.5576 55.8601 18.6932 55.8441 18.828 55.8549C18.9628 55.8656 19.0942 55.9028 19.2147 55.9643ZM38.2325 17.319C38.2325 13.7539 36.0722 10.6848 32.9925 9.34894C34.0035 8.41812 34.6384 7.0846 34.6384 5.60535C34.6384 2.79888 32.3551 0.515625 29.5486 0.515625C26.7422 0.515625 24.4589 2.79888 24.4589 5.60535C24.4589 7.0846 25.0937 8.41812 26.1048 9.34894C23.025 10.6849 20.8647 13.7539 20.8647 17.319C20.8647 17.5922 20.9732 17.8542 21.1663 18.0473C21.3595 18.2405 21.6215 18.349 21.8946 18.349H37.2025C37.4757 18.349 37.7377 18.2405 37.9308 18.0473C38.124 17.8542 38.2325 17.5922 38.2325 17.319ZM29.5486 8.63506C27.8779 8.63506 26.5188 7.27592 26.5188 5.60522C26.5188 3.93452 27.8781 2.57551 29.5486 2.57551C31.2192 2.57551 32.5785 3.93465 32.5785 5.60535C32.5785 7.27605 31.2193 8.63506 29.5486 8.63506ZM36.0926 16.2891H23.0046C23.5008 13.1239 26.2464 10.6949 29.5486 10.6949C32.8509 10.6949 35.5965 13.1239 36.0926 16.2891ZM42.6624 55.263H57.9701C58.2432 55.263 58.5052 55.1545 58.6983 54.9614C58.8915 54.7682 59 54.5063 59 54.2331C59 50.6678 56.8397 47.599 53.7599 46.263C54.7709 45.3322 55.4058 43.9988 55.4058 42.5194C55.4058 39.713 53.1225 37.4297 50.316 37.4297C47.5096 37.4297 45.2263 39.713 45.2263 42.5194C45.2263 43.9988 45.8611 45.3322 46.8722 46.263C43.7925 47.5988 41.6322 50.6678 41.6322 54.2331C41.6323 54.5063 41.7409 54.7682 41.9341 54.9614C42.1272 55.1545 42.3892 55.263 42.6624 55.263ZM50.3162 45.5493C48.6455 45.5493 47.2863 44.1901 47.2863 42.5194C47.2863 40.8487 48.6455 39.4896 50.3162 39.4896C51.9869 39.4896 53.346 40.8487 53.346 42.5194C53.346 44.1901 51.9869 45.5493 50.3162 45.5493ZM43.7723 53.2032C44.2685 50.038 47.014 47.6091 50.3163 47.6091C53.6185 47.6091 56.3641 50.038 56.8603 53.2032H43.7723ZM0.0972792 54.2331C0.0972792 54.5063 0.20579 54.7682 0.398942 54.9614C0.592094 55.1545 0.854065 55.263 1.12722 55.263H16.435C16.7082 55.263 16.9701 55.1545 17.1633 54.9614C17.3564 54.7682 17.465 54.5063 17.465 54.2331C17.465 50.6678 15.3046 47.599 12.2249 46.263C13.2359 45.3322 13.8707 43.9988 13.8707 42.5194C13.8707 39.713 11.5875 37.4297 8.78099 37.4297C5.97452 37.4297 3.69127 39.713 3.69127 42.5194C3.69127 43.9987 4.3261 45.3322 5.33711 46.263C2.25758 47.5988 0.0972792 50.6678 0.0972792 54.2331ZM8.78112 45.5493C7.11042 45.5493 5.75128 44.1901 5.75128 42.5194C5.75128 40.8487 7.11042 39.4896 8.78112 39.4896C10.4518 39.4896 11.811 40.8487 11.811 42.5194C11.811 44.1901 10.4517 45.5493 8.78112 45.5493ZM2.23711 53.2032C2.73329 50.038 5.47886 47.6091 8.78112 47.6091C12.0834 47.6091 14.8289 50.038 15.3251 53.2032H2.23711ZM35.3673 35.7255C35.3673 32.5171 32.757 29.9069 29.5486 29.9069C26.3402 29.9069 23.73 32.5171 23.73 35.7255C23.73 38.9339 26.3402 41.5442 29.5486 41.5442C32.757 41.5442 35.3673 38.9339 35.3673 35.7255ZM33.3074 35.7255C33.3074 37.7982 31.6213 39.4843 29.5486 39.4843C27.476 39.4843 25.7899 37.7982 25.7899 35.7255C25.7899 33.6529 27.4761 31.9668 29.5486 31.9668C31.6211 31.9668 33.3074 33.6529 33.3074 35.7255ZM39.5811 29.9334C39.1379 29.1658 39.1388 28.2116 39.5835 27.4432C40.2812 26.2378 39.9945 24.7362 38.9017 23.8726C37.7602 22.9699 36.494 22.2372 35.1425 21.6973C33.8459 21.1796 32.4006 21.6825 31.7048 22.8924C31.2619 23.6627 30.4358 24.1412 29.5486 24.1412C28.6615 24.1412 27.8355 23.6627 27.3925 22.8924C26.6969 21.6825 25.2511 21.1799 23.9548 21.6973C22.6033 22.2371 21.3371 22.9697 20.1956 23.8724C19.1027 24.736 18.816 26.2378 19.5139 27.4432C19.9586 28.2116 19.9595 29.1657 19.5163 29.9334C19.0736 30.7003 18.248 31.1763 17.3613 31.1763H17.3537C15.9592 31.1763 14.8035 32.1772 14.6045 33.5578C14.3979 34.9955 14.3978 36.4554 14.6043 37.8932C14.8032 39.2738 15.959 40.2747 17.3533 40.2748H17.3612C18.248 40.2748 19.0735 40.7508 19.5163 41.5177C19.9595 42.2852 19.9586 43.2395 19.5139 44.0078C18.8162 45.2132 19.103 46.715 20.1957 47.5786C21.3372 48.4812 22.6034 49.2139 23.9548 49.7537C25.2509 50.2713 26.6967 49.7686 27.3926 48.5586C27.8355 47.7884 28.6616 47.3098 29.5488 47.3098C30.4359 47.3098 31.2619 47.7884 31.705 48.5586C32.2167 49.4486 33.1345 49.956 34.1 49.956C34.4469 49.956 34.7999 49.8906 35.1426 49.7537C36.4941 49.214 37.7603 48.4813 38.9018 47.5786C39.9946 46.7152 40.2813 45.2135 39.5836 44.0079C39.1388 43.2396 39.1379 42.2854 39.5811 41.5178C40.0238 40.7509 40.8494 40.2749 41.7362 40.2749H41.7439C43.1382 40.2749 44.294 39.2741 44.493 37.8936C44.6993 36.4557 44.6994 34.9958 44.4931 33.558C44.2942 32.1774 43.1382 31.1764 41.7439 31.1764H41.7363C40.8493 31.1763 40.0238 30.7002 39.5811 29.9334ZM41.7361 33.2362H41.7437C41.9166 33.235 42.0841 33.2969 42.2148 33.4101C42.3456 33.5234 42.4307 33.6803 42.4542 33.8517C42.6325 35.0947 42.6325 36.3568 42.4541 37.5998C42.4305 37.7711 42.3454 37.9279 42.2147 38.0411C42.084 38.1543 41.9166 38.2161 41.7437 38.215H41.7362C40.1157 38.215 38.6067 39.0855 37.7971 40.4879C36.9866 41.8917 36.988 43.6359 37.8007 45.0398C37.8881 45.1888 37.9185 45.3646 37.8861 45.5343C37.8537 45.704 37.7608 45.8562 37.6246 45.9625C36.639 46.7419 35.5458 47.3746 34.3789 47.8408C34.2186 47.9059 34.0401 47.9105 33.8766 47.8537C33.7132 47.7969 33.576 47.6826 33.4906 47.532C32.6812 46.1245 31.1708 45.2501 29.5488 45.2501C27.9267 45.2501 26.4162 46.1245 25.6069 47.5319C25.5216 47.6825 25.3844 47.7968 25.2209 47.8536C25.0575 47.9105 24.8789 47.9059 24.7186 47.8408C23.5518 47.3746 22.4586 46.7419 21.473 45.9625C21.3368 45.8562 21.2438 45.704 21.2114 45.5343C21.179 45.3646 21.2094 45.1888 21.2969 45.0398C22.1095 43.6359 22.1109 41.8917 21.3005 40.488C20.4898 39.0837 18.9804 38.2176 17.355 38.2152H17.3539C17.1809 38.2163 17.0135 38.1545 16.8828 38.0412C16.7521 37.928 16.667 37.7711 16.6434 37.5998C16.4651 36.3568 16.4652 35.0948 16.6436 33.8518C16.6672 33.6805 16.7523 33.5236 16.883 33.4103C17.0137 33.2971 17.1812 33.2353 17.3541 33.2364H17.3617C18.9821 33.2364 20.4909 32.366 21.3006 30.9636C22.111 29.5599 22.1096 27.8156 21.297 26.4116C21.2095 26.2626 21.1791 26.0869 21.2115 25.9172C21.2439 25.7474 21.3369 25.5952 21.4731 25.4889C22.4587 24.7095 23.5519 24.0769 24.7187 23.6107C24.879 23.5455 25.0576 23.5409 25.221 23.5977C25.3845 23.6546 25.5217 23.7689 25.607 23.9194C26.4165 25.327 27.9269 26.2014 29.5489 26.2014C31.1711 26.2014 32.6816 25.327 33.4907 23.9194C33.5761 23.7688 33.7133 23.6545 33.8767 23.5976C34.0402 23.5408 34.2187 23.5454 34.3791 23.6106C35.5459 24.0767 36.6391 24.7094 37.6247 25.4889C37.7609 25.5952 37.8538 25.7474 37.8862 25.9171C37.9186 26.0868 37.8883 26.2625 37.8008 26.4115C36.9882 27.8156 36.9868 29.5598 37.7972 30.9635C38.6067 32.3656 40.1157 33.236 41.7361 33.2362Z" fill="#FF4446"/>
</svg>
