<svg width="60" height="60" viewBox="0 0 60 60" fill="none" xmlns="http://www.w3.org/2000/svg">
<path d="M2 55.5007H1.5V56.0007V58.0003V58.5003H2H58H58.5V58.0003V56.0007V55.5007H58H2ZM4.83809 26.53L4.8381 26.53L4.84424 26.5279L4.84474 26.5277L4.84631 26.5272L4.85166 26.5254L4.86942 26.5193L4.93017 26.4984C4.98153 26.4807 5.05418 26.4555 5.14711 26.4229C5.33297 26.3578 5.59977 26.2631 5.93947 26.1393C6.61884 25.8918 7.58982 25.5283 8.788 25.0528C11.184 24.1021 14.4903 22.7034 18.1912 20.8906C25.5833 17.2697 34.5898 11.9775 41.05 5.2762L41.345 4.97015L41.0904 4.62972L38.6004 1.30028L38.6004 1.30026L38.5968 1.29549C38.4894 1.15551 38.4681 0.951756 38.5572 0.773543C38.6412 0.605607 38.8164 0.5 39 0.5H51C51.1554 0.5 51.3061 0.578091 51.39 0.689967C51.4805 0.810564 51.5161 0.982617 51.4771 1.12996C51.4771 1.13029 51.477 1.13061 51.4769 1.13094L48.4776 12.1264L48.4767 12.13C48.4333 12.2938 48.3014 12.4284 48.1255 12.4736L48.1255 12.4735L48.1178 12.4756C48.0351 12.4983 47.9479 12.4984 47.8653 12.4761C47.7826 12.4537 47.7074 12.4096 47.6475 12.3483L47.6475 12.3483L47.6435 12.3443L45.3235 10.0247L44.9869 9.6881L44.6342 10.0078C41.2315 13.0926 26.1026 25.7229 5.05914 27.4853H5H4.86087C4.68983 27.4351 4.55118 27.294 4.50969 27.1044C4.45994 26.8482 4.60271 26.6085 4.83809 26.53ZM40.6 2.3097L42.3988 4.70765C42.3989 4.70783 42.3991 4.70801 42.3992 4.70819C42.5458 4.90587 42.5277 5.17482 42.3662 5.346L42.3636 5.34878C34.236 14.0994 22.0146 20.465 13.7791 24.078L14.0973 25.022C32.5398 20.5707 44.4792 8.81645 44.6435 8.6522L44.6439 8.65184C44.69 8.60568 44.7447 8.56906 44.8049 8.54407C44.8652 8.51908 44.9298 8.50622 44.995 8.50622C45.0602 8.50622 45.1248 8.51909 45.1851 8.54407C45.2453 8.56906 45.3 8.60568 45.3461 8.65184L45.3465 8.6522L47.1265 10.4319L47.7357 11.0411L47.9624 10.2098L50.1624 2.14119L50.3346 1.50967H49.68H41.25H41H40.99V2.00967V2.01717L40.6 2.3097ZM14 51.5013C13.7261 51.5013 13.5 51.2752 13.5 51.0015V43.0028C13.5 42.1767 12.8261 41.503 12 41.503H6C5.17394 41.503 4.5 42.1767 4.5 43.0028V51.0015C4.5 51.2752 4.27393 51.5013 4 51.5013C3.72607 51.5013 3.5 51.2752 3.5 51.0015V43.0028C3.5 41.6293 4.62606 40.5033 6 40.5033H12C13.3739 40.5033 14.5 41.6293 14.5 43.0028V51.0015C14.5 51.2752 14.2739 51.5013 14 51.5013ZM28 51.5013C27.7261 51.5013 27.5 51.2752 27.5 51.0015V35.0042C27.5 34.178 26.8261 33.5043 26 33.5043H20C19.1739 33.5043 18.5 34.178 18.5 35.0042V51.0015C18.5 51.2752 18.2739 51.5013 18 51.5013C17.7261 51.5013 17.5 51.2752 17.5 51.0015V35.0042C17.5 33.6307 18.6261 32.5047 20 32.5047H26C27.3739 32.5047 28.5 33.6307 28.5 35.0042V51.0015C28.5 51.2752 28.2739 51.5013 28 51.5013ZM42 51.5013C41.7261 51.5013 41.5 51.2752 41.5 51.0015V27.0055C41.5 26.1794 40.8261 25.5057 40 25.5057H34C33.1739 25.5057 32.5 26.1794 32.5 27.0055V51.0015C32.5 51.2752 32.2739 51.5013 32 51.5013C31.7261 51.5013 31.5 51.2752 31.5 51.0015V27.0055C31.5 25.632 32.6261 24.506 34 24.506H40C41.3739 24.506 42.5 25.632 42.5 27.0055V51.0015C42.5 51.2752 42.2739 51.5013 42 51.5013ZM56 51.5013C55.7261 51.5013 55.5 51.2752 55.5 51.0015V19.0068C55.5 18.1807 54.8261 17.507 54 17.507H48C47.1739 17.507 46.5 18.1807 46.5 19.0068V51.0015C46.5 51.2752 46.2739 51.5013 46 51.5013C45.7261 51.5013 45.5 51.2752 45.5 51.0015V19.0068C45.5 17.6333 46.6261 16.5073 48 16.5073H54C55.3739 16.5073 56.5 17.6333 56.5 19.0068V51.0015C56.5 51.2752 56.2739 51.5013 56 51.5013ZM58 59.5H2C1.17606 59.5 0.5 58.8239 0.5 58.0003V56.0007C0.5 55.1771 1.17606 54.501 2 54.501H58C58.8239 54.501 59.5 55.1771 59.5 56.0007V58.0003C59.5 58.8239 58.8239 59.5 58 59.5Z" fill="#FF0000" stroke="#FF4446"/>
</svg>
