<svg width="55" height="60" viewBox="0 0 55 60" fill="none" xmlns="http://www.w3.org/2000/svg">
<path d="M14.8906 46.4062C15.5375 46.4062 16.0625 46.9312 16.0625 47.5781C16.0625 48.225 15.5375 48.75 14.8906 48.75C14.2437 48.75 13.7188 48.225 13.7188 47.5781C13.7188 46.9312 14.2437 46.4062 14.8906 46.4062Z" fill="#FF4446"/>
<path d="M12.0052 42.6168L17.5752 40.7605L19.5747 36.7613C17.7733 34.9277 16.5226 32.5017 16.1008 29.9713L15.8514 28.4766H13.7188C11.7802 28.4766 10.2031 26.8995 10.2031 24.9609V17.5781C10.2031 7.88555 18.0887 0 27.7812 0C37.4987 0 45.3594 7.86293 45.3594 17.5781V24.9609C45.3594 26.4886 44.3796 27.7913 43.0156 28.275V29.6484C43.0156 31.587 41.4385 33.1641 39.5 33.1641H38.4709C37.9643 34.2673 37.3024 35.2923 36.5052 36.2079C36.3389 36.3984 36.1667 36.5837 35.9888 36.7635L37.9873 40.7605L43.5574 42.6169C50.0338 44.7764 54.7344 51.5943 54.7344 58.8281C54.7344 59.4754 54.2097 60 53.5625 60H2C1.35289 60 0.828125 59.4754 0.828125 58.8281C0.828125 51.5943 5.52863 44.7764 12.0052 42.6168ZM12.5469 24.9609C12.5469 25.6071 13.0726 26.1328 13.7188 26.1328H15.5073C15.2094 23.8254 15.0109 21.37 14.9311 18.9516C14.9287 18.8834 14.9268 18.817 14.9247 18.75H12.5469V24.9609ZM41.8438 26.1328C42.4899 26.1328 43.0156 25.6071 43.0156 24.9609V18.75H40.637C40.6331 18.8722 40.629 18.995 40.6244 19.1187L40.6239 19.1312V19.1323C40.5419 21.4845 40.346 23.8761 40.0549 26.1327H41.8438V26.1328ZM39.5 30.8203C40.1462 30.8203 40.6719 30.2946 40.6719 29.6484V28.4766H39.7112L39.4618 29.9718C39.4138 30.2565 39.3559 30.5396 39.2881 30.8203H39.5ZM40.6699 16.4062H42.9711C42.3775 8.55223 35.823 2.34375 27.7812 2.34375C19.7752 2.34375 13.1919 8.55141 12.5915 16.4062H14.8925C14.9769 9.93434 20.2472 4.6875 26.7323 4.6875H28.83C35.315 4.6875 40.5856 9.93434 40.6699 16.4062ZM28.8301 7.03125H26.7324C21.4814 7.03125 17.2313 11.3263 17.2344 16.5715C17.2344 16.9403 17.2373 17.2614 17.2435 17.5535L17.2436 17.565L18.7094 17.3556C22.6914 16.787 26.4513 14.9071 29.2964 12.062C29.5162 11.8423 29.8142 11.7188 30.125 11.7188C33.2722 11.7188 36.2848 13.1527 38.2763 15.5752C37.7855 10.8034 33.7516 7.03125 28.8301 7.03125ZM36.8586 30.8203C37.4452 28.8688 38.1165 23.1266 38.2648 19.4469L36.6876 17.3439C35.2391 15.4131 32.9854 14.2134 30.5881 14.0757C27.4338 17.0776 23.3531 19.06 19.0408 19.6757L17.3156 19.9222C17.4309 22.3697 17.6666 24.8257 18.0042 27.0845L18.0045 27.0868C18.1119 27.813 18.1965 28.2804 18.4126 29.5857C19.0332 33.3082 21.8108 36.6744 25.4775 37.5912C26.99 37.9679 28.5719 37.9679 30.0845 37.5912C32.3739 37.0188 34.4732 35.4347 35.828 33.1641H33.4391C32.9553 34.528 31.6528 35.5078 30.125 35.5078H27.7812C25.8389 35.5078 24.2656 33.9347 24.2656 31.9922C24.2656 30.0537 25.8427 28.4766 27.7812 28.4766H30.125C31.6868 28.4766 32.9701 29.4853 33.4411 30.8203H36.8586ZM30.2236 39.9628C29.4205 40.1324 28.602 40.2182 27.7812 40.2188C27.1401 40.2188 26.4989 40.1651 25.8649 40.061L27.9356 42.2509L30.2236 39.9628ZM29.5467 43.9546L33.2636 47.8853C34.2877 45.925 35.1647 43.8914 35.8873 41.8013L34.4915 39.0096L29.5467 43.9546ZM21.2696 38.6126L19.6754 41.8011C20.3981 43.892 21.2752 45.9262 22.2994 47.887L26.2777 43.9087L21.2696 38.6126ZM31.2969 31.9922C31.2969 31.3452 30.7721 30.8203 30.125 30.8203H27.7812C27.1351 30.8203 26.6094 31.346 26.6094 31.9922C26.6094 32.6393 27.1343 33.1641 27.7812 33.1641H30.125C30.7712 33.1641 31.2969 32.6384 31.2969 31.9922ZM52.3437 57.6562C51.8793 51.8509 48.0158 46.5742 42.8162 44.8403L37.8833 43.1964C36.9783 45.6982 35.8625 48.1186 34.5478 50.4315L34.5412 50.4434L34.5411 50.4436C33.5747 52.1415 32.5034 53.7774 31.3334 55.3419L29.8918 57.6562H52.3437ZM27.7812 56.6116L29.3705 54.0601C29.3883 54.0315 29.4073 54.0037 29.4275 53.9768C30.3769 52.7096 31.2583 51.3928 32.068 50.032L27.8887 45.6124L23.485 50.0161C24.2971 51.3825 25.1816 52.7045 26.1348 53.9766C26.1922 54.0531 26.1107 53.9325 27.7812 56.6116ZM25.6707 57.6562L24.2292 55.342C23.0501 53.7656 21.9712 52.1165 20.999 50.4047C20.9932 50.3944 20.9877 50.3838 20.9818 50.3735L20.9797 50.3698C19.68 48.0756 18.5759 45.676 17.6792 43.1964L12.7464 44.8403C7.54672 46.5742 3.68316 51.8509 3.21875 57.6562H25.6707Z" fill="#FF4446"/>
<path d="M6.74066 52.9137C7.52382 51.3461 8.67097 49.9534 10.0581 48.8863C10.5712 48.4915 11.3069 48.5875 11.7014 49.1005C12.0961 49.6136 12.0002 50.3493 11.4872 50.7439C10.3793 51.5963 9.46316 52.7087 8.83749 53.9611C8.54769 54.5411 7.84339 54.7745 7.26542 54.4857C6.68652 54.1965 6.45156 53.4927 6.74066 52.9137Z" fill="#FF4446"/>
</svg>
