<svg width="61" height="60" viewBox="0 0 61 60" fill="none" xmlns="http://www.w3.org/2000/svg">
<path d="M38.8828 15.5951C40.4982 15.5951 41.8125 14.2808 41.8125 12.6654C41.8125 11.05 40.4982 9.7356 38.8828 9.7356C37.2673 9.7356 35.9531 11.05 35.9531 12.6654C35.9531 13.3252 36.1725 13.9345 36.542 14.4249L31.7284 21.1515C31.434 21.0547 31.1261 21.0054 30.8162 21.0054C30.0464 21.0054 29.3454 21.3043 28.822 21.7916L25.6135 19.971C25.6572 19.7685 25.6792 19.562 25.6793 19.3549C25.6793 17.7395 24.365 16.4252 22.7496 16.4252C21.1342 16.4252 19.8199 17.7395 19.8199 19.3549C19.8199 19.5662 19.8429 19.7722 19.8856 19.971L16.6772 21.7916C16.1538 21.3043 15.4528 21.0055 14.683 21.0055C13.0676 21.0055 11.7533 22.3199 11.7533 23.9353C11.7533 25.5507 13.0676 26.8651 14.683 26.8651C16.2984 26.8651 17.6127 25.5507 17.6127 23.9353C17.6126 23.7282 17.5906 23.5217 17.5469 23.3193L20.7554 21.4986C21.2788 21.9859 21.9798 22.2848 22.7496 22.2848C23.5194 22.2848 24.2203 21.9859 24.7438 21.4988L27.9522 23.3194C27.9086 23.5218 27.8865 23.7283 27.8865 23.9354C27.8865 25.5509 29.2007 26.8652 30.8162 26.8652C32.4317 26.8652 33.746 25.5509 33.746 23.9354C33.7466 23.3004 33.5398 22.6825 33.157 22.1757L37.9706 15.4491C38.265 15.5458 38.5729 15.5951 38.8828 15.5951ZM38.8828 11.4934C39.5289 11.4934 40.0546 12.0191 40.0546 12.6654C40.0546 13.3116 39.5289 13.8373 38.8828 13.8373C38.2366 13.8373 37.7109 13.3116 37.7109 12.6654C37.7108 12.0191 38.2365 11.4934 38.8828 11.4934ZM14.6826 25.1071C14.0365 25.1071 13.5108 24.5814 13.5108 23.9351C13.5108 23.2888 14.0365 22.7631 14.6826 22.7631C15.3288 22.7631 15.8545 23.2888 15.8545 23.9351C15.8545 24.5814 15.3288 25.1071 14.6826 25.1071ZM22.7493 20.5268C22.1032 20.5268 21.5775 20.0011 21.5775 19.3548C21.5775 18.7086 22.1032 18.1829 22.7493 18.1829C23.3955 18.1829 23.9212 18.7086 23.9212 19.3548C23.9213 20.0011 23.3955 20.5268 22.7493 20.5268ZM30.8161 25.1071C30.1699 25.1071 29.6442 24.5814 29.6442 23.9351C29.6442 23.2888 30.1699 22.7631 30.8161 22.7631C31.4623 22.7631 31.9881 23.2888 31.9881 23.9351C31.9881 24.5814 31.4622 25.1071 30.8161 25.1071Z" fill="#FF4446"/>
<path d="M49.6842 44.1774H3.0927C2.8996 44.1772 2.71448 44.1004 2.57794 43.9639C2.4414 43.8273 2.3646 43.6422 2.36438 43.4491V7.18909C2.3646 6.996 2.4414 6.81087 2.57794 6.67433C2.71448 6.53779 2.8996 6.46099 3.0927 6.46077H7.23598C7.72137 6.46077 8.11488 6.06737 8.11488 5.58187C8.11488 5.09636 7.72137 4.70296 7.23598 4.70296H3.0927C1.72184 4.70296 0.606567 5.81823 0.606567 7.18909V43.4491C0.606567 44.82 1.72184 45.9352 3.0927 45.9352H9.15281V47.8695C9.15281 48.9714 10.0493 49.8679 11.1512 49.8679H19.9489L15.8075 57.9536C15.7038 58.1608 15.6861 58.4006 15.7583 58.6207C15.8304 58.8409 15.9866 59.0237 16.1928 59.1293C16.399 59.2349 16.6386 59.2549 16.8594 59.1848C17.0802 59.1147 17.2645 58.9602 17.372 58.755L21.9239 49.8679H31.6413L36.1932 58.755C36.2458 58.8577 36.3181 58.9491 36.406 59.0239C36.4939 59.0987 36.5957 59.1554 36.7056 59.1909C36.8154 59.2263 36.9312 59.2398 37.0462 59.2305C37.1613 59.2212 37.2734 59.1893 37.3761 59.1366C37.4788 59.084 37.5702 59.0117 37.645 58.9237C37.7198 58.8358 37.7765 58.734 37.8119 58.6242C37.8473 58.5143 37.8608 58.3986 37.8515 58.2835C37.8422 58.1684 37.8103 58.0564 37.7577 57.9536L33.6163 49.8679H42.414C43.5159 49.8679 44.4124 48.9716 44.4124 47.8695V45.9352H49.6842C50.1696 45.9352 50.5631 45.5418 50.5631 45.0563C50.5631 44.5708 50.1696 44.1774 49.6842 44.1774ZM42.6546 47.8695C42.6545 47.9333 42.6292 47.9945 42.584 48.0396C42.5389 48.0847 42.4778 48.1101 42.414 48.1101H11.1512C11.0874 48.1101 11.0263 48.0847 10.9812 48.0396C10.9361 47.9945 10.9107 47.9333 10.9106 47.8695V45.9352H42.6546V47.8695ZM10.7516 6.46077H50.4724C50.6655 6.46099 50.8506 6.53779 50.9872 6.67433C51.1237 6.81087 51.2005 6.996 51.2007 7.18909V15.5458C51.2007 16.0314 51.5942 16.4248 52.0796 16.4248C52.565 16.4248 52.9585 16.0314 52.9585 15.5458V7.18909C52.9585 5.81823 51.8433 4.70296 50.4724 4.70296H31.6606V2.97538C31.6606 1.75956 30.6715 0.770386 29.4555 0.770386H24.1097C22.8939 0.770386 21.9046 1.75956 21.9046 2.97538V4.70296H10.7516C10.2662 4.70296 9.87269 5.09636 9.87269 5.58187C9.87269 6.06737 10.2662 6.46077 10.7516 6.46077ZM23.6624 2.97538C23.6625 2.8568 23.7097 2.74311 23.7935 2.65927C23.8774 2.57543 23.9911 2.52829 24.1097 2.5282H29.4555C29.5741 2.52832 29.6878 2.57547 29.7716 2.6593C29.8555 2.74314 29.9027 2.85681 29.9028 2.97538V4.70296H23.6625V2.97538H23.6624Z" fill="#FF4446"/>
<path d="M12.8998 31.3585C12.6667 31.3585 12.4431 31.4511 12.2783 31.6159C12.1135 31.7807 12.0209 32.0043 12.0209 32.2374V40.0036C12.0209 40.2367 12.1135 40.4603 12.2783 40.6251C12.4431 40.7899 12.6667 40.8825 12.8998 40.8825H16.4654C16.6985 40.8825 16.9221 40.7899 17.0869 40.6251C17.2517 40.4603 17.3443 40.2367 17.3443 40.0036V32.2374C17.3443 32.0043 17.2517 31.7807 17.0869 31.6159C16.9221 31.4511 16.6985 31.3585 16.4654 31.3585H12.8998ZM15.5865 39.1248H13.7787V33.1164H15.5865V39.1248ZM20.9664 26.8669C20.7333 26.8669 20.5097 26.9595 20.3449 27.1243C20.1801 27.2892 20.0875 27.5127 20.0875 27.7458V40.0037C20.0875 40.2368 20.1801 40.4604 20.3449 40.6252C20.5097 40.7901 20.7333 40.8826 20.9664 40.8826H24.532C24.7651 40.8826 24.9887 40.7901 25.1535 40.6252C25.3183 40.4604 25.4109 40.2368 25.4109 40.0037V27.7458C25.4109 27.5127 25.3183 27.2892 25.1535 27.1243C24.9887 26.9595 24.7651 26.8669 24.532 26.8669H20.9664ZM23.6532 39.1248H21.8454V28.6247H23.6532V39.1248ZM29.0331 31.3585C28.8 31.3585 28.5764 31.4511 28.4116 31.6159C28.2468 31.7807 28.1542 32.0043 28.1542 32.2374V40.0036C28.1542 40.2367 28.2468 40.4603 28.4116 40.6251C28.5764 40.7899 28.8 40.8825 29.0331 40.8825H32.5988C32.8319 40.8825 33.0554 40.7899 33.2202 40.6251C33.3851 40.4603 33.4777 40.2367 33.4777 40.0036V32.2374C33.4777 32.0043 33.3851 31.7807 33.2202 31.6159C33.0554 31.4511 32.8319 31.3585 32.5988 31.3585H29.0331ZM31.7198 39.1248H29.912V33.1164H31.7198V39.1248ZM37.0998 36.5447C36.8667 36.5447 36.6432 36.6373 36.4783 36.8021C36.3135 36.967 36.2209 37.1905 36.2209 37.4236V40.0037C36.2209 40.2368 36.3135 40.4604 36.4783 40.6252C36.6432 40.7901 36.8667 40.8826 37.0998 40.8826H40.6655C41.1509 40.8826 41.5444 40.4893 41.5444 40.0037C41.5444 39.5182 41.1509 39.1248 40.6655 39.1248H37.9787V37.4236C37.9787 37.1905 37.8861 36.967 37.7213 36.8021C37.5565 36.6373 37.3329 36.5447 37.0998 36.5447ZM60.1583 45.0041L55.1161 36.2706C56.3935 34.909 57.3238 33.2453 57.8206 31.3909C58.6148 28.4271 58.2072 25.3314 56.673 22.6741C53.5059 17.1882 46.4664 15.3023 40.9808 18.4693C35.4952 21.6363 33.609 28.6758 36.7761 34.1615C38.3103 36.8188 40.7876 38.7196 43.7514 39.5139C44.727 39.7763 45.7328 39.9095 46.7432 39.9102C47.6153 39.9102 48.4823 39.8099 49.3303 39.6114L54.3715 48.3451C54.9894 49.4159 56.1146 50.0151 57.2703 50.0149C57.8367 50.0149 58.4105 49.8709 58.9353 49.5681C59.9661 48.9732 60.6065 47.8637 60.6065 46.6729C60.6065 46.0894 60.4516 45.5125 60.1583 45.0041ZM44.2063 37.816C41.696 37.1433 39.5978 35.5333 38.2983 33.2826C35.6159 28.6363 37.2135 22.6741 41.8596 19.9915C43.3881 19.1091 45.0583 18.69 46.7081 18.69C50.0732 18.69 53.3507 20.4353 55.1507 23.553C56.45 25.8037 56.7953 28.4256 56.1226 30.936C55.4499 33.4464 53.8399 35.5444 51.5892 36.8439C49.3386 38.1434 46.7167 38.4884 44.2063 37.816ZM58.0568 48.0456C57.3006 48.4823 56.3303 48.2223 55.894 47.4665L51.0438 39.0637C51.5339 38.8638 52.0099 38.6308 52.4683 38.3663C52.9267 38.101 53.3664 37.8048 53.7844 37.4796L58.6359 45.8828C58.7748 46.123 58.8482 46.3955 58.8487 46.673C58.8484 46.9511 58.775 47.2242 58.6361 47.4651C58.4971 47.7059 58.2973 47.9061 58.0568 48.0456Z" fill="#FF4446"/>
<path d="M54.6934 30.8937C55.3139 28.895 55.1661 26.7552 54.2773 24.8684C54.2288 24.7628 54.16 24.6678 54.0746 24.589C53.9892 24.5102 53.8891 24.449 53.78 24.4092C53.6708 24.3693 53.5549 24.3514 53.4388 24.3566C53.3227 24.3619 53.2088 24.39 53.1037 24.4396C52.9986 24.4891 52.9044 24.5589 52.8264 24.6451C52.7485 24.7313 52.6884 24.8321 52.6497 24.9416C52.6109 25.0511 52.5943 25.1673 52.6007 25.2833C52.6072 25.3993 52.6365 25.5129 52.6871 25.6175C53.3883 27.1058 53.5046 28.7943 53.0147 30.3724C52.522 31.9591 51.4577 33.2907 50.0178 34.122C48.4942 35.0019 46.7189 35.2353 45.0196 34.78C43.3201 34.3246 41.8996 33.2347 41.02 31.711C39.2039 28.5656 40.2855 24.5292 43.431 22.7131C44.5527 22.0636 45.8413 21.76 47.1351 21.8404C48.4288 21.9208 49.6699 22.3817 50.7026 23.1651C50.7946 23.2348 50.8994 23.2856 51.0111 23.3148C51.1228 23.3439 51.2391 23.3508 51.3535 23.3349C51.4678 23.3191 51.5779 23.2809 51.6775 23.2225C51.777 23.1641 51.8641 23.0867 51.9337 22.9946C52.0744 22.8087 52.1354 22.5746 52.1034 22.3437C52.0714 22.1128 51.949 21.9041 51.7631 21.7634C50.455 20.771 48.8829 20.1872 47.2441 20.0853C45.6053 19.9834 43.9729 20.368 42.5519 21.1907C40.6216 22.3052 39.2408 24.1047 38.6639 26.2577C38.087 28.4107 38.3831 30.6595 39.4976 32.5898C40.612 34.5202 42.4116 35.9009 44.5645 36.478C45.2733 36.6686 46.004 36.7654 46.7379 36.7659C48.1837 36.7659 49.611 36.3867 50.8966 35.6443C52.7209 34.5912 54.0692 32.9042 54.6934 30.8937Z" fill="#FF4446"/>
</svg>
