<svg width="60" height="60" viewBox="0 0 60 60" fill="none" xmlns="http://www.w3.org/2000/svg">
<path d="M12.871 58.1493L11.1068 55.6643C10.7322 55.1365 10.0006 55.0124 9.47283 55.387C8.94514 55.7616 8.82092 56.4931 9.19569 57.0209L10.9599 59.5061C11.0682 59.659 11.2117 59.7835 11.3781 59.8694C11.5446 59.9553 11.7292 60 11.9165 59.9997C12.1511 59.9997 12.388 59.9294 12.5939 59.7833C13.1216 59.4086 13.2458 58.6771 12.871 58.1493ZM26.3912 58.5871L24.4712 49.4362C23.5375 44.9864 20.9453 41.1387 17.1724 38.6017L13.0731 35.8452C11.4293 34.7402 9.21983 34.9778 7.84592 36.3788V22.2582C7.84592 20.4048 6.58229 18.83 4.77292 18.4284C3.60515 18.169 2.4007 18.45 1.46777 19.1985C0.53496 19.9469 0 21.0622 0 22.2582V40.4283C0 42.8087 0.728436 45.0931 2.10644 47.0343L4.19624 49.9781C4.30455 50.1309 4.44796 50.2555 4.61442 50.3414C4.78088 50.4273 4.96553 50.472 5.15284 50.4717C5.38745 50.4717 5.62429 50.4014 5.83018 50.2553C6.35788 49.8806 6.4821 49.1491 6.10733 48.6213L4.01753 45.6775C2.92253 44.1349 2.34375 42.3198 2.34375 40.4282V22.2582C2.34375 21.7768 2.55914 21.3279 2.9346 21.0265C3.11875 20.878 3.33404 20.773 3.56442 20.7193C3.79481 20.6656 4.03434 20.6647 4.26515 20.7165C4.99347 20.8781 5.50218 21.5121 5.50218 22.2582V36.6741C5.50218 38.7148 6.25194 40.659 7.61401 42.1717C7.67237 42.2417 7.73237 42.3109 7.79577 42.3781C8.57401 43.2027 9.48901 44.1744 10.3508 45.0904L11.5572 46.3744C11.5611 46.3785 11.5653 46.382 11.5693 46.386C12.6014 47.4837 13.3625 48.2943 13.3785 48.3111C13.8213 48.7828 14.5631 48.8062 15.0349 48.3632C15.5067 47.9201 15.53 47.1785 15.0868 46.7067C15.0655 46.684 13.6937 45.2232 12.1271 43.5581L9.44014 40.6984C9.43334 40.6912 9.42713 40.6835 9.42033 40.6763C8.79033 39.9228 8.79819 38.8302 9.45854 38.0847C10.0427 37.4254 11.0346 37.2988 11.7655 37.7902L15.8646 40.5467C19.128 42.741 21.3699 46.0689 22.1773 49.9175L24.0975 59.0685C24.2134 59.6208 24.7005 60 25.2432 60C25.3229 60 25.4039 59.9917 25.4849 59.9748C26.1183 59.8419 26.524 59.2205 26.3912 58.5871Z" fill="#FF4446"/>
<path d="M8.68222 52.2488L8.67472 52.2382C8.29855 51.7114 7.56683 51.589 7.04007 51.965C6.51331 52.3409 6.39097 53.0727 6.76679 53.5995L6.77429 53.61C6.8827 53.7622 7.02596 53.8862 7.19209 53.9717C7.35823 54.0572 7.54241 54.1016 7.72925 54.1014C7.9648 54.1014 8.20257 54.0306 8.40894 53.8833C8.93558 53.5074 9.05804 52.7755 8.68222 52.2488ZM58.532 19.1986C57.5992 18.4502 56.3942 18.1696 55.227 18.4286C53.4176 18.8301 52.1539 20.405 52.1539 22.2584V36.379C50.7801 34.978 48.5704 34.7403 46.9267 35.8454L42.8274 38.6018C39.0543 41.1386 36.4623 44.9865 35.5286 49.4363L33.6087 58.5873C33.4758 59.2207 33.8815 59.8419 34.5149 59.9748C34.596 59.9918 34.677 60 34.7566 60C35.2994 60 35.7865 59.6208 35.9024 59.0685L37.8224 49.9175C38.6299 46.0689 40.8717 42.7409 44.1351 40.5467L48.2344 37.7904C48.9651 37.2989 49.957 37.4254 50.5414 38.0847C51.2009 38.8293 51.2097 39.9201 50.5821 40.6736C50.5746 40.6818 50.5674 40.6903 50.5599 40.6985L44.9131 46.7068C44.47 47.1786 44.4934 47.9201 44.965 48.3632C45.4368 48.8063 46.1784 48.783 46.6215 48.3112C46.6374 48.2943 51.4259 43.2029 52.2042 42.3782C52.2668 42.3113 52.3275 42.2425 52.3859 42.1719C53.7479 40.6592 54.4977 38.715 54.4977 36.6743V22.2583C54.4977 21.5121 55.0065 20.8782 55.7349 20.7166C56.2052 20.6123 56.6898 20.7254 57.0654 21.0265C57.2503 21.1741 57.3994 21.3616 57.5017 21.5749C57.604 21.7881 57.6568 22.0217 57.6563 22.2583V40.4284C57.6563 42.32 57.0775 44.1351 55.9825 45.6776L47.1289 58.1495C46.7542 58.6772 46.8783 59.4088 47.406 59.7834C47.6038 59.9243 47.8406 60 48.0834 59.9999C48.2707 60.0001 48.4553 59.9554 48.6218 59.8696C48.7882 59.7837 48.9317 59.6591 49.04 59.5063L57.8936 47.0344C59.2716 45.0932 60 42.8089 60 40.4285V22.2583C59.9997 21.0623 59.4648 19.9471 58.532 19.1986Z" fill="#FF4446"/>
<path d="M44.8425 22.4601L42.7576 21.962V21.5882C44.1127 20.639 45.0012 19.0672 45.0012 17.2909V14.5804C45.0012 11.6884 42.6484 9.33561 39.7563 9.33561C38.4585 9.33561 37.2702 9.81045 36.3535 10.5942C35.3328 8.0946 32.8767 6.32812 30.0146 6.32812C27.1489 6.32812 24.6903 8.09917 23.6719 10.6036C22.7538 9.8142 21.5611 9.33538 20.258 9.33538C17.3659 9.33538 15.0132 11.6881 15.0132 14.5802V17.2906C15.0132 19.0669 15.9017 20.6388 17.2567 21.588V21.9618L15.1719 22.4599C12.6826 23.0546 10.944 25.2573 10.944 27.8167V30.0053C10.944 30.6525 11.4687 31.1772 12.1158 31.1772H17.5008C17.492 31.32 17.4873 31.4631 17.4868 31.6062V35.82C17.4868 36.4672 18.0115 36.9919 18.6586 36.9919H25.7028C26.3499 36.9919 26.8746 36.4672 26.8746 35.82C26.8746 35.1728 26.3499 34.6481 25.7028 34.6481H24.492V32.2265C24.492 31.5792 23.9672 31.0546 23.3201 31.0546C22.673 31.0546 22.1482 31.5792 22.1482 32.2265V34.6484H19.8306V31.6064C19.8306 29.3462 21.3658 27.3999 23.5635 26.8732L26.7794 26.1026L28.9315 30.9989C29.023 31.2072 29.1732 31.3843 29.3637 31.5086C29.5541 31.633 29.7767 31.6992 30.0041 31.6992H30.0042C30.2317 31.6992 30.4543 31.633 30.6448 31.5087C30.8352 31.3844 30.9854 31.2073 31.077 30.999L33.2269 26.11L36.4326 26.8758C38.6324 27.4014 40.1688 29.348 40.1688 31.6098V34.6484H37.8512V32.2265C37.8512 31.5792 37.3265 31.0546 36.6793 31.0546C36.0322 31.0546 35.5075 31.5792 35.5075 32.2265V34.6484H34.1794C33.5323 34.6484 33.0075 35.173 33.0075 35.8202C33.0075 36.4675 33.5323 36.9921 34.1794 36.9921H41.3408C41.9879 36.9921 42.5127 36.4675 42.5127 35.8202V31.6098C42.5127 31.4646 42.5068 31.3207 42.4984 31.1774H47.8986C48.5457 31.1774 49.0705 30.6528 49.0705 30.0055V27.8169C49.0705 25.2576 47.3319 23.0547 44.8425 22.4601ZM39.7563 11.6791C41.2917 11.6791 42.5522 12.8781 42.6511 14.3888H41.0218C39.6543 14.3887 38.3069 14.0603 37.0927 13.4312C37.5383 12.4013 38.5647 11.6791 39.7563 11.6791ZM36.8552 17.1195C36.8567 17.0625 36.8596 17.0056 36.8596 16.9482V15.9045C38.1792 16.4509 39.5935 16.7323 41.0218 16.7326H42.6574V17.2907C42.6574 18.8903 41.3561 20.1918 39.7563 20.1918C38.1566 20.1918 36.8552 18.8903 36.8552 17.2906V17.1195ZM25.5134 13.173C25.5134 10.6911 27.5325 8.67187 30.0146 8.67187C32.2532 8.67187 34.1152 10.3146 34.459 12.4577L32.4862 11.2986C32.2472 11.1582 31.9662 11.107 31.693 11.1542C31.4199 11.2014 31.1723 11.3439 30.9944 11.5564C30.5199 12.1239 29.9265 12.5803 29.2562 12.8931C28.5858 13.206 27.855 13.3677 27.1152 13.3668H25.5134V13.173ZM20.2581 11.6791C21.4498 11.6791 22.476 12.4015 22.9218 13.4311C21.7076 14.0602 20.3601 14.3886 18.9926 14.3887H17.3634C17.4623 12.8781 18.7229 11.6791 20.2581 11.6791ZM17.357 16.7325H18.9926C20.4225 16.7322 21.8383 16.4502 23.1592 15.9027V17.2905C23.1592 18.8901 21.8579 20.1916 20.2581 20.1916C18.6584 20.1916 17.357 18.8903 17.357 17.2906V16.7325ZM23.0174 24.594C20.7119 25.1464 18.8999 26.7538 18.0375 28.8335H13.2877V27.8168C13.2859 27.1051 13.5249 26.4136 13.9658 25.8549C14.4067 25.2962 15.0237 24.9031 15.7164 24.7395L18.7009 24.0265C18.9572 23.9653 19.1853 23.8196 19.3486 23.6128C19.5118 23.406 19.6006 23.1502 19.6006 22.8868V22.4928C19.8162 22.5199 20.0354 22.5354 20.2581 22.5354C20.4793 22.5354 20.6969 22.5201 20.9109 22.4934V22.8277C20.9014 23.0324 20.9457 23.236 21.0396 23.4181C21.1334 23.6003 21.2733 23.7546 21.4455 23.8657C21.5721 23.948 21.7135 24.0048 21.8618 24.0331L23.6099 24.4519L23.0174 24.594ZM26.2862 22.7747C25.9836 22.6413 25.6696 22.5354 25.3479 22.4583L23.2545 21.9567V21.5915C23.632 21.3278 23.9735 21.0158 24.2702 20.6636C24.794 21.4704 25.4807 22.1587 26.2862 22.6844V22.7747ZM31.3759 24.4966L30.0046 27.6155L28.6301 24.4886V23.6524C29.0856 23.7462 29.5495 23.7934 30.0146 23.7932C30.4718 23.7933 30.9278 23.7476 31.3759 23.6568V24.4966ZM30.0146 21.4494C27.5325 21.4495 25.5134 19.4302 25.5134 16.9482V15.7105H27.1152C28.9736 15.7105 30.7405 15.0194 32.0948 13.7868L34.5114 15.2067V17.1196C34.4209 19.5223 32.4392 21.4494 30.0146 21.4494ZM33.7197 22.7785V22.6992C34.5318 22.1739 35.2244 21.4838 35.7525 20.6735C36.0472 21.0216 36.3857 21.3302 36.7596 21.5915V21.9567L34.6661 22.4583C34.3416 22.5362 34.0248 22.6434 33.7197 22.7785ZM46.7266 28.8335H41.9606C41.0974 26.7538 39.2842 25.1473 36.9772 24.5962L36.3888 24.4557L38.1463 24.0345C38.2968 24.0064 38.4403 23.9491 38.5688 23.8657C38.7372 23.7568 38.8747 23.6065 38.9684 23.4292C39.062 23.2518 39.1085 23.0534 39.1034 22.8529V22.4934C39.3175 22.5201 39.535 22.5354 39.7561 22.5354C39.976 22.5349 40.1956 22.5207 40.4136 22.4928V22.8868C40.4137 23.1502 40.5024 23.406 40.6657 23.6128C40.8289 23.8196 41.057 23.9653 41.3133 24.0265L44.2978 24.7395C44.9905 24.9031 45.6075 25.2962 46.0485 25.8549C46.4894 26.4136 46.7284 27.1051 46.7266 27.8168V28.8335Z" fill="#FF4446"/>
<path d="M30.8282 34.9909C30.6078 34.7724 30.3102 34.6495 29.9998 34.6487C29.6903 34.6487 29.3893 34.7729 29.1713 34.9909C28.9518 35.2113 28.8284 35.5095 28.8279 35.8206C28.8279 36.1288 28.9522 36.4299 29.1713 36.6491C29.3893 36.867 29.6904 36.9924 29.9998 36.9924C30.308 36.9924 30.6092 36.867 30.8282 36.6491C31.047 36.4287 31.1704 36.1311 31.1717 35.8206C31.1717 35.5112 31.0463 35.21 30.8282 34.9909ZM29.999 0C29.3519 0 28.8271 0.524646 28.8271 1.17187V2.92534C28.8271 3.57256 29.3519 4.09721 29.999 4.09721C30.6461 4.09721 31.1709 3.57256 31.1709 2.92534V1.17187C31.1709 0.524646 30.6462 0 29.999 0ZM25.6823 3.82252L24.453 2.5944C23.9951 2.13691 23.2532 2.13726 22.7957 2.59511C22.3382 3.05296 22.3387 3.79498 22.7965 4.25237L24.026 5.48049C24.1346 5.58936 24.2637 5.6757 24.4058 5.73454C24.548 5.79339 24.7003 5.82358 24.8541 5.82338C25.0081 5.82357 25.1606 5.79331 25.3029 5.73434C25.4452 5.67537 25.5744 5.58886 25.6831 5.47978C26.1404 5.02193 26.1401 4.2799 25.6823 3.82252ZM37.1743 2.6244C36.7164 2.16702 35.9743 2.16726 35.517 2.62522L34.2972 3.8462C33.8398 4.30405 33.8402 5.04607 34.298 5.50345C34.4067 5.61233 34.5358 5.69867 34.6779 5.75752C34.8201 5.81636 34.9725 5.84655 35.1263 5.84634C35.2803 5.84654 35.4328 5.81628 35.5751 5.75729C35.7174 5.6983 35.8466 5.61176 35.9553 5.50263L37.1751 4.28166C37.6325 3.82381 37.6321 3.08178 37.1743 2.6244Z" fill="#FF4446"/>
</svg>
