<svg width="60" height="62" viewBox="0 0 60 62" fill="none" xmlns="http://www.w3.org/2000/svg">
<path d="M33.5713 33.5302C33.4958 33.7526 33.5117 33.9959 33.6156 34.2066C33.7195 34.4173 33.9028 34.5781 34.1252 34.6536L34.6308 34.8253C34.7638 34.8702 34.9016 34.893 35.0407 34.893C35.7448 34.893 36.3175 34.3197 36.3175 33.6153V21.4826C36.3175 20.7781 35.7448 20.205 35.0408 20.205C34.901 20.2049 34.7621 20.2279 34.6298 20.273L27.1479 22.812H22.5959C19.9839 22.812 17.8589 24.937 17.8589 27.5489C17.8589 29.8335 19.4848 31.7456 21.6401 32.1889V37.3697C21.6401 38.625 22.6614 39.6475 23.9179 39.6493H23.9604C24.5684 39.6493 25.1404 39.4128 25.5707 38.9829C25.7834 38.7717 25.9521 38.5203 26.0669 38.2434C26.1818 37.9664 26.2405 37.6695 26.2397 37.3697V32.2859H27.1479L30.2114 33.3255C30.6743 33.482 31.1775 33.2347 31.3348 32.7715C31.3722 32.6613 31.3875 32.5449 31.3799 32.4288C31.3723 32.3127 31.3419 32.1993 31.2904 32.095C31.239 31.9907 31.1675 31.8975 31.08 31.8208C30.9926 31.7441 30.8909 31.6854 30.7807 31.6481L28.18 30.7655V24.3323L34.5463 22.1719V32.9396C34.3403 32.9077 34.1296 32.9494 33.9513 33.0574C33.7729 33.1654 33.6384 33.3328 33.5713 33.5302ZM19.6304 27.5489C19.6304 25.9137 20.9608 24.5834 22.596 24.5834H26.4087V30.5146H22.5987L22.5434 30.5129L22.5373 30.5131C20.929 30.4814 19.6304 29.1644 19.6304 27.5489ZM24.4683 37.3697C24.4685 37.4365 24.4554 37.5027 24.4298 37.5645C24.4042 37.6262 24.3666 37.6823 24.3192 37.7294C24.272 37.7768 24.2158 37.8143 24.154 37.8398C24.0922 37.8653 24.026 37.8783 23.9591 37.8779H23.9192C23.7846 37.8776 23.6556 37.8239 23.5605 37.7286C23.4653 37.6334 23.4118 37.5043 23.4116 37.3697V32.2859H24.4684V37.3697H24.4683ZM38.0636 27.1359C38.0636 27.6252 38.46 28.0216 38.9493 28.0216H41.2558C41.7451 28.0216 42.1415 27.6252 42.1415 27.1359C42.1415 26.6467 41.7451 26.2503 41.2558 26.2503H38.9493C38.7144 26.2503 38.4891 26.3436 38.323 26.5097C38.1569 26.6758 38.0636 26.901 38.0636 27.1359ZM39.2877 24.7352C39.4839 24.7352 39.6814 24.6702 39.8456 24.5369L41.4767 23.2119C41.659 23.0638 41.775 22.8493 41.7992 22.6157C41.8234 22.3821 41.7538 22.1484 41.6057 21.966C41.5324 21.8757 41.4421 21.8007 41.3398 21.7454C41.2375 21.69 41.1253 21.6553 41.0096 21.6433C40.8939 21.6314 40.7769 21.6423 40.6655 21.6755C40.554 21.7087 40.4501 21.7636 40.3599 21.837L38.7288 23.1619C38.5465 23.31 38.4305 23.5245 38.4063 23.7581C38.3821 23.9918 38.4517 24.2255 38.5997 24.4078C38.6827 24.5103 38.7876 24.5928 38.9066 24.6495C39.0257 24.7061 39.1559 24.7354 39.2877 24.7352ZM39.8455 29.7348C39.7552 29.6614 39.6514 29.6065 39.5399 29.5733C39.4284 29.5401 39.3115 29.5291 39.1958 29.5411C39.0801 29.5531 38.9679 29.5878 38.8656 29.6432C38.7633 29.6985 38.6729 29.7735 38.5996 29.8638C38.4515 30.0462 38.3819 30.2798 38.4061 30.5135C38.4303 30.7471 38.5464 30.9616 38.7287 31.1097L40.3598 32.4347C40.5173 32.5631 40.7144 32.6331 40.9176 32.6329C41.1006 32.633 41.2791 32.5764 41.4287 32.4709C41.5782 32.3654 41.6914 32.2162 41.7526 32.0438C41.8139 31.8713 41.8202 31.6842 41.7708 31.508C41.7214 31.3318 41.6186 31.1752 41.4765 31.0599L39.8455 29.7348Z" fill="#FF4446"/>
<path d="M0.000244461 27.058C0.000244461 27.5477 0.176318 28.0219 0.495989 28.3935L2.39134 30.5956C2.58358 30.8191 2.82185 30.9985 3.08983 31.1214C3.35781 31.2443 3.64918 31.3078 3.944 31.3077C4.43413 31.3075 4.90795 31.1316 5.27949 30.812L8.15334 28.3384V45.5727C8.15334 46.0619 8.54989 46.4584 9.03902 46.4584C9.52816 46.4584 9.9247 46.0619 9.9247 45.5727V26.814L29.8197 9.69085C29.8675 9.64929 29.9285 9.6258 29.9919 9.62448C29.9944 9.62436 29.9975 9.62389 30 9.62389C30.0132 9.62389 30.0283 9.62531 30.0445 9.62779C30.0857 9.63428 30.1342 9.65105 30.1803 9.69073L50.0754 26.8139V53.5539H46.887V42.6965C46.887 41.8174 46.1718 41.1023 45.2927 41.1023H14.7074C13.8283 41.1023 13.1132 41.8174 13.1132 42.6965V53.5539H9.9247V49.7059C9.9247 49.2166 9.52816 48.8202 9.03902 48.8202C8.54989 48.8202 8.15334 49.2166 8.15334 49.7059V53.5539H3.46408C2.45476 53.5539 1.63367 54.3749 1.63367 55.3843V59.7015C1.63367 60.7109 2.45476 61.5319 3.46408 61.5319H56.5365C57.5458 61.5319 58.3669 60.7109 58.3669 59.7015V55.3843C58.3669 54.3749 57.5458 53.5539 56.5365 53.5539H51.847V28.3385L54.7209 30.812C55.1325 31.1662 55.6681 31.3425 56.2097 31.302C56.7513 31.2614 57.2547 31.0074 57.609 30.5957L59.5045 28.3935C59.8587 27.9817 60.0349 27.4462 59.9943 26.9046C59.9538 26.363 59.6998 25.8597 59.2883 25.5053L56.8605 23.4159C56.7724 23.3401 56.6702 23.2823 56.5597 23.2459C56.4492 23.2096 56.3326 23.1953 56.2167 23.204C56.1007 23.2127 55.9875 23.2441 55.8837 23.2966C55.7799 23.349 55.6874 23.4213 55.6115 23.5095C55.5356 23.5976 55.4779 23.6999 55.4415 23.8103C55.4051 23.9208 55.3909 24.0374 55.3996 24.1534C55.4083 24.2693 55.4397 24.3825 55.4921 24.4863C55.5445 24.5901 55.6169 24.6826 55.705 24.7585L58.1329 26.8479C58.2165 26.9198 58.2289 27.0104 58.2289 27.058C58.2289 27.1046 58.2172 27.1736 58.1619 27.2378L56.2666 29.44C56.2407 29.4703 56.2084 29.4947 56.1721 29.5113C56.1359 29.5279 56.0964 29.5364 56.0565 29.5361C56.0097 29.5361 55.9407 29.5244 55.8765 29.4693L51.5393 25.7363L46.3528 21.2725L31.3362 8.34828C30.9648 8.02861 30.4904 7.85265 30.0004 7.85265C29.9558 7.85265 29.9116 7.85572 29.8674 7.85855C29.4239 7.88695 29.0016 8.05884 28.6644 8.34828L4.12409 29.4694C4.07421 29.5128 4.01024 29.5366 3.94412 29.5363C3.90421 29.5366 3.86473 29.5281 3.82843 29.5115C3.79214 29.4949 3.75992 29.4706 3.73404 29.4402L1.83856 27.2379C1.7952 27.1881 1.77141 27.1242 1.7716 27.0581C1.7716 27.0105 1.78412 26.9199 1.86773 26.848L29.8198 2.79022C29.8842 2.73484 29.9535 2.72326 30.0002 2.72326C30.047 2.72326 30.1162 2.73496 30.1806 2.79022L52.5723 22.0621C52.943 22.3812 53.5023 22.3394 53.8214 21.9686C54.1404 21.5978 54.0986 21.0387 53.7278 20.7196L31.3361 1.44753C30.9644 1.12787 30.4905 0.952021 30.0002 0.951904C29.51 0.952025 29.036 1.12791 28.6643 1.44765L0.712331 25.5053C0.488793 25.6975 0.309432 25.9358 0.186528 26.2038C0.063624 26.4718 7.93678e-05 26.7631 0.000244461 27.058ZM45.1158 53.554H35.3533V42.8737H45.1158V53.554ZM33.5819 42.8736V53.5539H26.4185V42.8736H33.5819ZM14.8847 42.8736H24.6472V53.5539H14.8847V42.8736ZM56.5956 55.3844V59.7017C56.5956 59.7341 56.569 59.7607 56.5365 59.7607H3.46408C3.44842 59.7607 3.4334 59.7545 3.42233 59.7434C3.41126 59.7323 3.40503 59.7173 3.40503 59.7017V55.3844C3.40503 55.3687 3.41126 55.3537 3.42233 55.3426C3.4334 55.3316 3.44842 55.3253 3.46408 55.3253H56.5365C56.5522 55.3253 56.5672 55.3316 56.5783 55.3426C56.5893 55.3537 56.5956 55.3687 56.5956 55.3844Z" fill="#FF4446"/>
</svg>
