<svg width="58" height="60" viewBox="0 0 58 60" fill="none" xmlns="http://www.w3.org/2000/svg">
<path d="M1.93333 55.5007H1.43333V56.0007V58.0003V58.5003H1.93333H56.0667H56.5667V58.0003V56.0007V55.5007H56.0667H1.93333ZM4.68697 26.5284L4.68699 26.5284L4.69326 26.5261L4.69517 26.5255L4.70032 26.5236L4.71749 26.5175L4.77626 26.4966C4.82595 26.4789 4.89622 26.4537 4.98611 26.4211C5.16587 26.3559 5.42388 26.2612 5.75237 26.1374C6.40932 25.8898 7.34817 25.5262 8.50667 25.0506C10.8233 24.0997 14.02 22.7007 17.5982 20.8876C24.7453 17.266 33.4534 11.9727 39.6995 5.27005L39.9797 4.96935L39.7389 4.63624L37.3319 1.3068L37.3319 1.30678L37.3284 1.30199C37.2234 1.1604 37.2015 0.950319 37.2898 0.767522C37.3723 0.596881 37.5378 0.5 37.7 0.5H49.3C49.4381 0.5 49.5781 0.572091 49.6589 0.683451C49.7467 0.804503 49.7831 0.980803 49.7442 1.13368C49.744 1.1341 49.7439 1.13453 49.7438 1.13496L46.8445 12.1305L46.8436 12.134C46.8001 12.3039 46.6714 12.4326 46.5131 12.4746L46.5131 12.4746L46.5052 12.4768C46.4308 12.4979 46.3527 12.4981 46.2783 12.4772C46.2038 12.4563 46.134 12.4147 46.077 12.3544L46.0771 12.3544L46.0731 12.3503L43.8305 10.0307L43.4882 9.67669L43.129 10.0136C39.839 13.0989 25.2198 25.7234 4.88909 27.4853H4.83333H4.70453C4.55072 27.437 4.41758 27.3031 4.37635 27.1076C4.32556 26.8377 4.47389 26.6018 4.68697 26.5284ZM39.2285 2.30318L40.9674 4.70113C40.9676 4.70144 40.9678 4.70174 40.968 4.70205C41.1121 4.90345 41.0929 5.18023 40.9361 5.3522L40.9336 5.35501C33.0784 14.104 21.2668 20.4683 13.3074 24.0806L13.6351 25.021C31.4703 20.5679 43.0148 8.80989 43.1731 8.64616L43.1735 8.64579C43.2173 8.6004 43.2684 8.56532 43.3234 8.54171C43.3784 8.51813 43.4367 8.50622 43.4952 8.50622C43.5536 8.50622 43.6119 8.51813 43.6669 8.54171C43.7219 8.56532 43.773 8.6004 43.8168 8.64579L43.8172 8.64616L45.5379 10.4259L46.1547 11.0638L46.3808 10.2058L48.5075 2.1371L48.6729 1.50967H48.024H39.8884H39.6333H39.6237V2.00967V2.01667L39.2285 2.30318ZM13.5333 51.5013C13.2936 51.5013 13.0667 51.2913 13.0667 51.0015V43.0028C13.0667 42.1928 12.4236 41.503 11.6 41.503H5.8C4.97643 41.503 4.33333 42.1928 4.33333 43.0028V51.0015C4.33333 51.2913 4.10643 51.5013 3.86667 51.5013C3.62691 51.5013 3.4 51.2913 3.4 51.0015V43.0028C3.4 41.6132 4.49691 40.5033 5.8 40.5033H11.6C12.9031 40.5033 14 41.6132 14 43.0028V51.0015C14 51.2913 13.7731 51.5013 13.5333 51.5013ZM27.0667 51.5013C26.8269 51.5013 26.6 51.2913 26.6 51.0015V35.0042C26.6 34.1941 25.9569 33.5043 25.1333 33.5043H19.3333C18.5098 33.5043 17.8667 34.1941 17.8667 35.0042V51.0015C17.8667 51.2913 17.6398 51.5013 17.4 51.5013C17.1602 51.5013 16.9333 51.2913 16.9333 51.0015V35.0042C16.9333 33.6146 18.0302 32.5047 19.3333 32.5047H25.1333C26.4364 32.5047 27.5333 33.6146 27.5333 35.0042V51.0015C27.5333 51.2913 27.3064 51.5013 27.0667 51.5013ZM40.6 51.5013C40.3602 51.5013 40.1333 51.2913 40.1333 51.0015V27.0055C40.1333 26.1955 39.4902 25.5057 38.6667 25.5057H32.8667C32.0431 25.5057 31.4 26.1955 31.4 27.0055V51.0015C31.4 51.2913 31.1731 51.5013 30.9333 51.5013C30.6936 51.5013 30.4667 51.2913 30.4667 51.0015V27.0055C30.4667 25.6159 31.5636 24.506 32.8667 24.506H38.6667C39.9698 24.506 41.0667 25.6159 41.0667 27.0055V51.0015C41.0667 51.2913 40.8398 51.5013 40.6 51.5013ZM54.1333 51.5013C53.8936 51.5013 53.6667 51.2913 53.6667 51.0015V19.0068C53.6667 18.1968 53.0236 17.507 52.2 17.507H46.4C45.5764 17.507 44.9333 18.1968 44.9333 19.0068V51.0015C44.9333 51.2913 44.7064 51.5013 44.4667 51.5013C44.2269 51.5013 44 51.2913 44 51.0015V19.0068C44 17.6172 45.0969 16.5073 46.4 16.5073H52.2C53.5031 16.5073 54.6 17.6172 54.6 19.0068V51.0015C54.6 51.2913 54.3731 51.5013 54.1333 51.5013ZM56.0667 59.5H1.93333C1.16191 59.5 0.5 58.84 0.5 58.0003V56.0007C0.5 55.161 1.16191 54.501 1.93333 54.501H56.0667C56.8381 54.501 57.5 55.161 57.5 56.0007V58.0003C57.5 58.84 56.8381 59.5 56.0667 59.5Z" fill="#FF0000" stroke="#FF4446"/>
</svg>
