<svg width="60" height="60" viewBox="0 0 60 60" fill="none" xmlns="http://www.w3.org/2000/svg">
<path d="M15.0525 30.464C15.1261 30.464 15.199 30.4495 15.2671 30.4213C15.3351 30.393 15.3969 30.3515 15.449 30.2992C15.501 30.2469 15.5423 30.1849 15.5705 30.1165C15.5987 30.0482 15.6132 29.9749 15.6131 29.9009V21.5786C15.6131 21.2241 15.9001 20.9357 16.2527 20.9357H26.563C26.3375 21.357 26.0862 21.7637 25.8104 22.1537H18.5022C17.6353 22.1537 16.9299 22.8618 16.9299 23.7328V39.7775C16.9299 40.6486 17.6353 41.3567 18.5022 41.3567H41.4978C42.3647 41.3567 43.0701 40.6486 43.0701 39.7775V23.7328C43.0701 22.8618 42.3647 22.1537 41.4978 22.1537H40.3961C40.2662 21.9698 40.2538 21.9701 39.2243 20.9357H43.7473C44.0999 20.9357 44.3869 21.2241 44.3869 21.5785V22.6133C44.3898 22.7608 44.4501 22.9012 44.5549 23.0044C44.6597 23.1076 44.8006 23.1654 44.9474 23.1654C45.0942 23.1654 45.2351 23.1076 45.3399 23.0044C45.4447 22.9012 45.505 22.7608 45.5079 22.6133V21.5786C45.5079 20.603 44.7188 19.8095 43.7473 19.8095H38.1032L37.5877 19.2913C38.3826 18.4931 39.142 17.9216 39.142 16.6422C39.142 14.365 36.3332 13.025 34.6297 14.7341L33.8411 15.527L31.257 12.9303C30.4216 12.0908 29.0613 12.0908 28.2257 12.9303C27.9906 13.1669 27.3977 13.6746 27.3977 14.6543C27.3977 15.6284 27.9755 16.1271 28.2715 16.4243C27.9503 17.4674 27.5152 18.8237 27.0979 19.8095H16.2527C15.2812 19.8095 14.4921 20.603 14.4921 21.5786V29.9009C14.4921 30.2127 14.7426 30.464 15.0525 30.464ZM28.2556 29.6125L25.3875 32.4944C24.2083 33.6792 22.1847 33.8909 20.7009 32.4C19.4346 31.1276 19.4302 29.064 20.7009 27.7854L23.5691 24.9036C23.6966 24.7757 23.9028 24.7768 24.0274 24.9036L24.4666 25.3452C25.0624 25.9435 27.8511 28.7459 28.2556 29.1522C28.3843 29.2798 28.38 29.4878 28.2556 29.6125ZM31.5774 36.0614C32.219 36.9738 31.5583 38.2247 30.4633 38.2247C30.0128 38.2247 29.6055 38.0129 29.346 37.6435L26.2439 33.2267L28.2043 31.2578L31.5774 36.0614ZM39.9717 25.1348L40.172 24.9345C40.6226 24.4818 40.8304 23.8741 40.7944 23.2801H41.4978C41.7466 23.2801 41.9489 23.4837 41.9489 23.7328V39.7776C41.9489 40.027 41.7466 40.2303 41.4978 40.2303H18.5022C18.2534 40.2303 18.0508 40.027 18.0508 39.7776V23.7328C18.0508 23.4838 18.2534 23.2802 18.5022 23.2802H24.9076C24.7443 23.4626 24.5764 23.6408 24.4041 23.8146C23.8813 23.572 23.2258 23.6565 22.7761 24.1068L19.9088 26.9887C17.0598 29.8513 19.311 34.5745 23.091 34.5745C23.8816 34.5745 24.6716 34.3605 25.368 33.9331L28.4306 38.2931C29.1038 39.2521 30.3502 39.6048 31.4139 39.1617C32.8818 38.5502 33.4138 36.7241 32.4938 35.4117L29.0082 30.4496C29.5124 29.9431 29.5793 29.2955 29.3392 28.7738C31.7694 26.3452 33.7883 25.8645 36.6968 24.8901C36.969 25.1633 37.4715 25.7654 38.456 25.7654C39.0286 25.7654 39.5672 25.5418 39.9717 25.1348ZM36.4779 15.0916C37.7695 15.0916 38.5664 16.7097 37.584 17.7022L36.7954 18.4954L34.634 16.3237C35.4183 15.5349 35.7183 15.0916 36.4779 15.0916ZM29.0181 13.7271C29.4161 13.3268 30.0658 13.3262 30.4648 13.7271C40.1987 23.5073 39.6061 22.7788 39.6696 23.2801C39.7421 23.8479 39.375 24.1418 39.1794 24.3382C38.7749 24.7445 38.1235 24.7352 37.7332 24.3382C28.1753 14.7341 28.7673 15.3543 28.6667 15.1867C28.5696 15.0263 28.5184 14.842 28.5188 14.6543C28.5188 14.1709 28.8044 13.9418 29.0181 13.7271ZM29.1636 17.3209C30.009 18.1703 35.0602 23.2454 35.8053 23.9941C32.907 24.9292 30.9066 25.6426 28.6093 27.9139L25.2591 24.5476C27.538 22.2209 28.2768 20.1244 29.1636 17.3209Z" fill="#FF4446"/>
<path d="M46.6746 42.3269H45.5079V24.866C45.505 24.7186 45.4447 24.5782 45.3399 24.475C45.2351 24.3717 45.0942 24.3139 44.9474 24.3139C44.8006 24.3139 44.6597 24.3717 44.5549 24.475C44.4501 24.5782 44.3898 24.7186 44.3869 24.866V42.3268H15.6131V32.1537C15.6131 32.0043 15.554 31.8611 15.4489 31.7555C15.3437 31.6499 15.2011 31.5906 15.0525 31.5906C14.9789 31.5906 14.906 31.6051 14.838 31.6334C14.77 31.6617 14.7082 31.7032 14.6562 31.7555C14.6042 31.8077 14.5629 31.8698 14.5347 31.9381C14.5065 32.0065 14.4921 32.0797 14.4921 32.1536V42.327H13.3254C12.0431 42.3269 11 43.375 11 44.6634C11 45.9519 12.0431 47 13.3254 47H16.0338C16.1824 47 16.325 46.9407 16.4301 46.8351C16.5352 46.7295 16.5942 46.5862 16.5942 46.4369C16.5943 46.3629 16.5798 46.2897 16.5517 46.2213C16.5235 46.153 16.4822 46.0909 16.4302 46.0386C16.3782 45.9863 16.3164 45.9447 16.2484 45.9164C16.1804 45.8881 16.1075 45.8735 16.0339 45.8735H13.3253C12.6611 45.8735 12.121 45.3308 12.121 44.6634C12.121 43.996 12.6612 43.4531 13.3253 43.4531H46.6745C47.3388 43.4531 47.8789 43.996 47.8789 44.6634C47.8789 45.3308 47.3387 45.8735 46.6745 45.8735H18.2757C18.2021 45.8735 18.1292 45.8881 18.0612 45.9164C17.9932 45.9447 17.9315 45.9863 17.8794 46.0386C17.8274 46.0909 17.7861 46.153 17.758 46.2213C17.7298 46.2897 17.7154 46.3629 17.7154 46.4369C17.7154 46.5862 17.7744 46.7294 17.8795 46.835C17.9846 46.9406 18.1271 46.9999 18.2757 46.9999H46.6746C47.9566 46.9999 49 45.9519 49 44.6634C49 43.375 47.9569 42.3269 46.6746 42.3269ZM39.5534 14.4693C39.8711 14.4693 39.7882 14.4684 42.0516 12.1675C42.1033 12.1148 42.1442 12.0525 42.1719 11.984C42.1997 11.9155 42.2137 11.8422 42.2133 11.7682C42.2128 11.6943 42.1979 11.6211 42.1693 11.553C42.1407 11.4848 42.099 11.423 42.0467 11.371C41.9943 11.319 41.9323 11.2779 41.8641 11.25C41.796 11.2221 41.723 11.2079 41.6494 11.2084C41.5758 11.2088 41.503 11.2238 41.4351 11.2525C41.3673 11.2812 41.3058 11.323 41.254 11.3756L39.1547 13.5103C38.8033 13.8675 39.0606 14.4693 39.5534 14.4693ZM36.6519 12.9048C36.79 12.9047 36.9232 12.8533 37.0259 12.7605C37.1286 12.6678 37.1937 12.5402 37.2085 12.4022L37.5074 9.6237C37.5233 9.4753 37.4799 9.3265 37.3868 9.2102C37.2936 9.0938 37.1582 9.0194 37.0105 9.0033C36.9373 8.9953 36.8633 9.0019 36.7926 9.0227C36.722 9.0435 36.6561 9.078 36.5988 9.1244C36.5415 9.1707 36.4938 9.228 36.4584 9.2929C36.4231 9.3578 36.4009 9.429 36.393 9.5026L36.094 12.281C36.0581 12.6137 36.3173 12.9048 36.6519 12.9048ZM40.279 16.8615C40.2631 17.01 40.3065 17.1588 40.3996 17.2751C40.4928 17.3914 40.6281 17.4658 40.7759 17.482C43.7264 17.8027 43.5542 17.7859 43.6021 17.7859C43.7455 17.7858 43.8835 17.7304 43.9876 17.6312C44.0916 17.532 44.1539 17.3964 44.1615 17.2525C44.1691 17.1085 44.1215 16.9671 44.0285 16.8574C43.9355 16.7477 43.8041 16.6779 43.6614 16.6626L40.8965 16.3623C40.5883 16.3285 40.3124 16.5524 40.279 16.8615Z" fill="#FF4446"/>
</svg>
