<svg width="60" height="60" viewBox="0 0 60 60" fill="none" xmlns="http://www.w3.org/2000/svg">
<path d="M45.968 32.4915C45.6928 27.2517 42.7896 22.5166 38.2018 19.8253C38.1269 19.7814 38.0439 19.7524 37.9576 19.7399C37.8712 19.7274 37.7832 19.7318 37.6986 19.7527C37.614 19.7737 37.5344 19.8107 37.4644 19.8619C37.3944 19.913 37.3353 19.9772 37.2906 20.0507C37.2458 20.1242 37.2163 20.2057 37.2036 20.2905C37.1909 20.3752 37.1953 20.4616 37.2166 20.5447C37.238 20.6277 37.2757 20.7059 37.3278 20.7746C37.3799 20.8433 37.4452 20.9013 37.5201 20.9453C41.7266 23.4129 44.3886 27.7544 44.6408 32.5588C44.6453 32.6443 44.6669 32.7281 44.7044 32.8055C44.7419 32.8828 44.7946 32.9522 44.8594 33.0095C44.9242 33.0669 44.9999 33.1112 45.0821 33.1398C45.1643 33.1685 45.2515 33.181 45.3386 33.1766C45.4258 33.1722 45.5112 33.1509 45.59 33.1141C45.6688 33.0773 45.7394 33.0256 45.7978 32.962C45.8563 32.8984 45.9014 32.8241 45.9306 32.7433C45.9597 32.6626 45.9725 32.577 45.968 32.4915ZM22.026 21.2226C17.914 23.8393 15.415 28.2732 15.3414 33.0832C15.3388 33.2545 15.2677 33.4178 15.1434 33.5381C15.0191 33.6583 14.8517 33.7257 14.6772 33.7257L14.667 33.7256C14.4908 33.723 14.3229 33.6518 14.2002 33.5277C14.0774 33.4035 14.01 33.2366 14.0126 33.0636C14.0929 27.8175 16.8183 22.9817 21.3031 20.1278C21.3763 20.0812 21.4582 20.0493 21.544 20.0337C21.6298 20.0182 21.7179 20.0194 21.8032 20.0372C21.8885 20.0551 21.9694 20.0893 22.0413 20.1379C22.1132 20.1865 22.1746 20.2485 22.222 20.3204C22.2695 20.3922 22.3021 20.4726 22.318 20.5568C22.3338 20.6411 22.3326 20.7275 22.3144 20.8113C22.2962 20.8951 22.2614 20.9745 22.2119 21.0451C22.1624 21.1157 22.0993 21.176 22.026 21.2226ZM23.3333 46.1175C27.6975 48.3052 32.8584 48.2128 37.1385 45.8704C37.2924 45.7861 37.4741 45.7654 37.6436 45.8126C37.8132 45.8599 37.9566 45.9714 38.0424 46.1225C38.1282 46.2736 38.1494 46.452 38.1012 46.6184C38.053 46.7848 37.9395 46.9256 37.7856 47.0098C35.3638 48.3352 32.6844 49 30.0009 49C27.5119 49 25.0193 48.4275 22.7289 47.2794C22.6511 47.2404 22.582 47.1868 22.5254 47.1216C22.4688 47.0565 22.4258 46.981 22.3989 46.8995C22.372 46.818 22.3618 46.7321 22.3687 46.6467C22.3756 46.5613 22.3996 46.4781 22.4393 46.4018C22.479 46.3255 22.5336 46.2576 22.6 46.202C22.6664 46.1465 22.7433 46.1043 22.8263 46.0779C22.9093 46.0515 22.9968 46.0414 23.0838 46.0482C23.1708 46.055 23.2555 46.0785 23.3333 46.1175ZM35.6022 21.6422C35.6022 19.3842 34.2085 17.4405 32.2217 16.5944C32.874 16.0049 33.2835 15.1604 33.2835 14.2235C33.2835 12.4461 31.8105 11 30 11C28.1895 11 26.7165 12.4461 26.7165 14.2235C26.7165 15.1604 27.126 16.0049 27.7782 16.5944C25.7914 17.4405 24.3977 19.3842 24.3977 21.6422C24.3977 21.8152 24.4677 21.9811 24.5923 22.1034C24.7169 22.2257 24.8859 22.2944 25.0621 22.2944H34.9378C35.114 22.2944 35.283 22.2257 35.4076 22.1034C35.5322 21.9811 35.6022 21.8152 35.6022 21.6422ZM30 16.1423C28.9222 16.1423 28.0454 15.2815 28.0454 14.2234C28.0454 13.1653 28.9223 12.3046 30 12.3046C31.0777 12.3046 31.9546 13.1654 31.9546 14.2235C31.9546 15.2816 31.0778 16.1423 30 16.1423ZM34.2217 20.9899H25.7783C26.0984 18.9853 27.8696 17.4469 30 17.4469C32.1304 17.4469 33.9016 18.9853 34.2217 20.9899ZM38.4601 45.6734H48.3356C48.5118 45.6734 48.6808 45.6046 48.8054 45.4823C48.93 45.36 49 45.1941 49 45.0211C49 42.7631 47.6063 40.8195 45.6194 39.9733C46.2717 39.3838 46.6812 38.5393 46.6812 37.6024C46.6812 35.825 45.2082 34.3789 43.3977 34.3789C41.5872 34.3789 40.1142 35.825 40.1142 37.6024C40.1142 38.5393 40.5237 39.3838 41.1759 39.9733C39.1892 40.8194 37.7955 42.7631 37.7955 45.0211C37.7955 45.1941 37.8656 45.36 37.9902 45.4823C38.1149 45.6046 38.2839 45.6733 38.4601 45.6734ZM43.3978 39.5213C42.32 39.5213 41.4431 38.6605 41.4431 37.6024C41.4431 36.5443 42.32 35.6835 43.3978 35.6835C44.4756 35.6835 45.3524 36.5443 45.3524 37.6024C45.3524 38.6605 44.4756 39.5213 43.3978 39.5213ZM39.1761 44.3688C39.4962 42.3642 41.2675 40.8259 43.3979 40.8259C45.5283 40.8259 47.2995 42.3642 47.6196 44.3688H39.1761ZM11 45.0211C11 45.1941 11.07 45.36 11.1946 45.4823C11.3192 45.6046 11.4882 45.6734 11.6644 45.6734H21.54C21.7162 45.6734 21.8852 45.6046 22.0098 45.4823C22.1344 45.36 22.2044 45.1941 22.2044 45.0211C22.2044 42.7631 20.8108 40.8195 18.8239 39.9733C19.4761 39.3838 19.8857 38.5393 19.8857 37.6024C19.8857 35.825 18.4127 34.3789 16.6021 34.3789C14.7916 34.3789 13.3186 35.825 13.3186 37.6024C13.3186 38.5393 13.7281 39.3838 14.3804 39.9733C12.3937 40.8194 11 42.7631 11 45.0211ZM16.6022 39.5213C15.5244 39.5213 14.6476 38.6605 14.6476 37.6024C14.6476 36.5443 15.5244 35.6835 16.6022 35.6835C17.68 35.6835 18.5569 36.5443 18.5569 37.6024C18.5569 38.6605 17.68 39.5213 16.6022 39.5213ZM12.3805 44.3688C12.7006 42.3642 14.4718 40.8259 16.6022 40.8259C18.7326 40.8259 20.5039 42.3642 20.824 44.3688H12.3805ZM33.7538 33.2996C33.7538 31.2676 32.0698 29.6145 30 29.6145C27.9302 29.6145 26.2462 31.2676 26.2462 33.2996C26.2462 35.3316 27.9302 36.9848 30 36.9848C32.0698 36.9848 33.7538 35.3316 33.7538 33.2996ZM32.4249 33.2996C32.4249 34.6123 31.3371 35.6802 30 35.6802C28.6629 35.6802 27.5751 34.6123 27.5751 33.2996C27.5751 31.9869 28.663 30.919 30 30.919C31.337 30.919 32.4249 31.9869 32.4249 33.2996ZM36.4722 29.6312C36.1864 29.1451 36.1869 28.5408 36.4738 28.0542C36.9239 27.2907 36.7389 26.3397 36.0339 25.7927C35.2975 25.221 34.4807 24.757 33.6088 24.4151C32.7723 24.0872 31.8399 24.4057 31.391 25.172C31.1053 25.6598 30.5723 25.9629 30 25.9629C29.4277 25.9629 28.8948 25.6598 28.609 25.172C28.1602 24.4057 27.2275 24.0874 26.3912 24.4151C25.5193 24.7569 24.7025 25.2209 23.9661 25.7926C23.261 26.3396 23.076 27.2907 23.5263 28.0542C23.8131 28.5408 23.8137 29.145 23.5279 29.6312C23.2422 30.117 22.7096 30.4184 22.1376 30.4184H22.1327C21.233 30.4184 20.4874 31.0524 20.3591 31.9267C20.2258 32.8373 20.2257 33.7619 20.3589 34.6724C20.4872 35.5469 21.2329 36.1807 22.1324 36.1808H22.1375C22.7096 36.1808 23.2421 36.4822 23.5279 36.968C23.8137 37.4541 23.8131 38.0584 23.5263 38.5451C23.0762 39.3085 23.2612 40.2596 23.9661 40.8066C24.7026 41.3782 25.5194 41.8422 26.3912 42.1841C27.2274 42.5119 28.1601 42.1935 28.6091 41.4272C28.8948 40.9394 29.4277 40.6363 30.0001 40.6363C30.5724 40.6363 31.1053 40.9394 31.3911 41.4272C31.7213 41.9909 32.3134 42.3122 32.9362 42.3122C33.16 42.3122 33.3878 42.2708 33.6089 42.1841C34.4808 41.8423 35.2976 41.3783 36.034 40.8066C36.739 40.2597 36.924 39.3087 36.4739 38.5451C36.1869 38.0585 36.1864 37.4542 36.4722 36.968C36.7579 36.4823 37.2905 36.1809 37.8626 36.1809H37.8676C38.7671 36.1809 39.5127 35.547 39.6411 34.6727C39.7742 33.7621 39.7742 32.8375 39.6412 31.9268C39.5128 31.0524 38.7671 30.4185 37.8676 30.4185H37.8627C37.2904 30.4184 36.7579 30.1169 36.4722 29.6312ZM37.8625 31.723H37.8674C37.979 31.7223 38.087 31.7615 38.1714 31.8332C38.2557 31.9049 38.3106 32.0043 38.3258 32.1128C38.4408 32.9001 38.4408 33.6994 38.3257 34.4866C38.3105 34.5951 38.2556 34.6945 38.1713 34.7662C38.087 34.8379 37.979 34.877 37.8674 34.8763H37.8626C36.8172 34.8763 35.8437 35.4276 35.3213 36.3157C34.7985 37.2048 34.7994 38.3095 35.3236 39.1987C35.3801 39.293 35.3997 39.4043 35.3788 39.5118C35.3579 39.6193 35.2979 39.7157 35.21 39.783C34.5742 40.2767 33.8689 40.6773 33.1162 40.9726C33.0128 41.0138 32.8976 41.0168 32.7921 40.9808C32.6867 40.9448 32.5982 40.8724 32.5431 40.7771C32.0209 39.8856 31.0465 39.3318 30.0001 39.3318C28.9537 39.3318 27.9792 39.8856 27.4571 40.777C27.402 40.8723 27.3135 40.9448 27.2081 40.9807C27.1026 41.0167 26.9874 41.0138 26.884 40.9726C26.1312 40.6773 25.426 40.2767 24.7901 39.783C24.7023 39.7157 24.6423 39.6193 24.6214 39.5118C24.6005 39.4043 24.6201 39.293 24.6765 39.1987C25.2008 38.3095 25.2017 37.2048 24.6788 36.3158C24.1558 35.4264 23.1821 34.8779 22.1335 34.8764H22.1328C22.0212 34.8771 21.9132 34.8379 21.8289 34.7662C21.7445 34.6945 21.6897 34.5951 21.6745 34.4866C21.5594 33.6994 21.5595 32.9001 21.6745 32.1129C21.6898 32.0044 21.7446 31.905 21.829 31.8333C21.9133 31.7616 22.0214 31.7225 22.1329 31.7232H22.1378C23.1832 31.7232 24.1566 31.1719 24.6789 30.2837C25.2018 29.3947 25.2009 28.29 24.6766 27.4008C24.6202 27.3064 24.6006 27.1951 24.6215 27.0876C24.6424 26.9801 24.7023 26.8838 24.7902 26.8164C25.426 26.3228 26.1313 25.9221 26.8841 25.6269C26.9875 25.5856 27.1027 25.5827 27.2081 25.6187C27.3136 25.6547 27.4021 25.7271 27.4572 25.8224C27.9793 26.7138 28.9537 27.2676 30.0002 27.2676C31.0467 27.2676 32.0212 26.7138 32.5432 25.8224C32.5982 25.727 32.6867 25.6546 32.7922 25.6186C32.8976 25.5826 33.0128 25.5855 33.1163 25.6268C33.869 25.922 34.5743 26.3227 35.2101 26.8164C35.298 26.8837 35.358 26.9801 35.3789 27.0876C35.3998 27.1951 35.3802 27.3064 35.3237 27.4007C34.7995 28.29 34.7986 29.3946 35.3214 30.2836C35.8437 31.1716 36.8172 31.7229 37.8625 31.723Z" fill="#FF4446"/>
</svg>
