<svg width="60" height="60" viewBox="0 0 60 60" fill="none" xmlns="http://www.w3.org/2000/svg">
<path d="M44.3468 18.043C43.6551 18.6007 42.9079 19.0857 42.1169 19.4905C42.7059 21.2742 43.0677 23.3694 43.1268 25.6162H47.7968C47.6454 22.7134 46.4082 20.1046 44.4816 18.1775C44.4369 18.1325 44.392 18.0876 44.3468 18.043ZM47.7971 26.8028H43.1271C43.0766 28.9653 42.7317 30.9848 42.1763 32.7264C42.1594 32.7941 42.1338 32.8612 42.1089 32.9285C42.9036 33.3312 43.6537 33.8164 44.3468 34.376C45.0564 33.6908 45.6732 32.9155 46.1814 32.0701C47.1472 30.4749 47.7023 28.6651 47.7971 26.8028ZM43.4385 35.1665C42.8917 34.7375 42.3108 34.3674 41.6969 34.0391C41.1079 35.4357 40.3587 36.5887 39.5088 37.3964C39.2734 37.6238 38.9029 37.6152 38.6755 37.3795C38.4482 37.1438 38.4571 36.7653 38.6925 36.5382C39.4414 35.8311 40.0897 34.8129 40.6196 33.551C40.5691 33.5341 40.5187 33.5175 40.4682 33.4923C39.3705 33.0794 38.2149 32.8409 37.0435 32.7855V32.9452C37.0435 33.2732 36.7825 33.5427 36.4545 33.5427C36.1265 33.5427 35.8567 33.2735 35.8567 32.9452V26.8028H33.0713C32.7433 26.8028 32.4824 26.5335 32.4824 26.2052C32.4824 25.8769 32.7433 25.6162 33.0713 25.6162H35.8567V20.8284C34.9228 20.7779 34.0055 20.6348 33.1304 20.3905C32.708 20.276 32.2923 20.1384 31.8851 19.9782C31.2962 21.7706 30.9598 23.9079 30.9598 26.2052C30.9591 26.3635 30.8959 26.5151 30.7839 26.6271C30.672 26.739 30.5203 26.8021 30.362 26.8028C30.0423 26.8028 29.773 26.5335 29.773 26.2052C29.773 23.7313 30.1515 21.4256 30.7909 19.4905C30.5414 19.358 30.2945 19.2204 30.0506 19.0778C29.9832 19.0391 29.9242 18.9874 29.8771 18.9256C29.8299 18.8638 29.7956 18.7933 29.776 18.7181C29.7565 18.6429 29.7521 18.5645 29.7631 18.4876C29.7742 18.4107 29.8005 18.3368 29.8404 18.2701C30.0087 17.984 30.3709 17.8913 30.6484 18.0596C30.8334 18.1689 31.0183 18.2784 31.2119 18.371C31.3357 18.0703 31.4733 17.7755 31.6242 17.4873C32.0365 16.663 32.5245 15.9473 33.0544 15.3666C32.081 15.6743 31.153 16.1101 30.2946 16.6627C30.1626 16.7465 30.0029 16.7749 29.8501 16.7418C29.6973 16.7087 29.5637 16.6167 29.4783 16.4858C29.3016 16.2079 29.3773 15.8377 29.6549 15.6611C30.6617 15.0138 31.7552 14.5124 32.9027 14.1718C34.0566 13.8365 35.2523 13.6665 36.4539 13.6669C39.9205 13.6669 43.0508 15.0635 45.3229 17.3356C47.5944 19.6074 49 22.7463 49 26.2046C49 28.5773 48.3436 30.7903 47.1993 32.6753C46.0182 34.6346 44.3252 36.2348 42.3024 37.3035C42.008 37.4632 41.6541 37.3457 41.503 37.0595C41.3519 36.7733 41.4606 36.4115 41.747 36.2604C42.2603 35.9914 43.548 35.1246 43.4385 35.1665ZM39.8534 15.3669C40.3839 15.9476 40.8633 16.663 41.2837 17.4876C41.4267 17.7738 41.5615 18.0683 41.6966 18.3713C42.3088 18.05 42.8916 17.6754 43.4382 17.2519C42.365 16.4152 41.151 15.7769 39.8534 15.3669ZM41.0236 32.4402L41.0486 32.3728C41.5704 30.7488 41.8898 28.8472 41.9409 26.8025H37.0435V31.5903C38.3589 31.6554 39.6561 31.925 40.8886 32.3895C40.939 32.4064 40.9812 32.4233 41.0236 32.4402ZM41.9409 25.616C41.8898 23.5374 41.5618 21.6189 41.0236 19.9782C40.9812 19.9951 40.9307 20.0117 40.8886 20.0287C39.6562 20.4935 38.3589 20.7632 37.0435 20.8281V25.616H41.9409ZM37.0435 14.9211V19.6332C38.2154 19.5751 39.3709 19.3338 40.4682 18.9181C40.5187 18.9012 40.5691 18.8846 40.6107 18.8677C40.4964 18.582 40.3701 18.3012 40.2322 18.0261C39.3654 16.3347 38.2552 15.2072 37.0435 14.9211ZM35.8567 19.6332V14.9211C34.6449 15.2072 33.5347 16.3347 32.6759 18.0261C32.5387 18.3027 32.4097 18.5834 32.2891 18.8677C32.6676 19.0105 33.0464 19.1452 33.4418 19.2462C34.2157 19.4649 35.0234 19.5914 35.8567 19.6332Z" fill="#FF4446"/>
<path d="M18.3292 28.0563L19.524 31.8174L21.8127 30.1515L19.2461 27.2652L18.3292 28.0563ZM19.7594 26.0535L22.6875 29.3521L25.6073 26.0535L25.6156 26.0452C25.6657 25.9854 25.7272 25.9364 25.7966 25.901C25.8661 25.8655 25.9419 25.8444 26.0196 25.839C26.0974 25.8335 26.1754 25.8437 26.2491 25.869C26.3228 25.8944 26.3906 25.9343 26.4486 25.9864L28.0391 27.3581L31.8509 29.0241C32.6418 29.369 33.2645 29.9161 33.6935 30.589C34.1313 31.2789 34.3667 32.0866 34.3667 32.9451V35.1077C34.3662 35.2659 34.3031 35.4176 34.1912 35.5295C34.0793 35.6415 33.9277 35.7046 33.7695 35.7052C33.4495 35.7052 33.1805 35.436 33.1805 35.1077V32.9451C33.1805 32.3057 33.0125 31.7165 32.7011 31.2288C32.3897 30.749 31.9439 30.362 31.3798 30.1093L28.0815 28.6705L26.7184 32.9618C26.6006 33.3489 26.1295 33.4919 25.8095 33.2562L23.2767 31.4134V35.5533C23.2767 35.8813 23.0161 36.1508 22.6878 36.1508C22.5295 36.1502 22.3779 36.087 22.2661 35.9751C22.1542 35.8631 22.0911 35.7115 22.0905 35.5533V31.4137L19.5661 33.2565C19.5661 33.2565 19.4061 33.3405 19.3895 33.3405C19.316 33.3648 19.2385 33.3742 19.1614 33.3683C19.0842 33.3623 19.009 33.3411 18.9402 33.3059C18.8713 33.2707 18.8101 33.2222 18.7601 33.1632C18.7101 33.1042 18.6723 33.0358 18.6489 32.9621L17.2857 28.6708L13.9871 30.1096C13.4234 30.3623 12.9776 30.749 12.6745 31.2291C12.3548 31.7171 12.1864 32.306 12.1864 32.9454V42.74C12.1864 43.068 11.9255 43.3375 11.5975 43.3375C11.2695 43.3375 10.9999 43.0683 10.9999 42.74V32.9451C10.9999 32.0866 11.2356 31.2792 11.6732 30.589C12.1024 29.9158 12.7335 29.369 13.516 29.0241L17.3276 27.3581L18.9178 25.9864C18.9758 25.9343 19.0437 25.8945 19.1174 25.8692C19.1911 25.8439 19.2692 25.8337 19.3469 25.8392C19.4246 25.8447 19.5005 25.8657 19.5699 25.9011C19.6393 25.9365 19.7009 25.9855 19.7511 26.0452L19.7594 26.0535ZM15.5857 37.5142C15.5861 37.3582 15.6483 37.2087 15.7587 37.0983C15.869 36.988 16.0186 36.9258 16.1746 36.9253C16.5026 36.9253 16.7722 37.1862 16.7722 37.5142V42.7397C16.7716 42.898 16.7084 43.0496 16.5965 43.1615C16.4845 43.2735 16.3329 43.3366 16.1746 43.3372C15.8549 43.3372 15.5857 43.068 15.5857 42.7397V37.5142ZM26.1209 27.2652L23.5543 30.1515L25.843 31.8174L27.0378 28.0563L26.1209 27.2652Z" fill="#FF4446"/>
<path d="M35.7388 36.5468H22.5786C22.0736 36.5468 21.5856 36.9844 21.5016 37.4721L19.8354 46.9472C19.7514 47.4266 20.0375 47.8137 20.5422 47.8137H33.4079C33.9969 47.8137 34.5606 47.3091 34.6615 46.7367L36.3197 37.2702C36.3298 37.2232 36.3355 37.1753 36.3367 37.1271C36.3367 36.7736 36.0837 36.5468 35.7388 36.5468ZM28.7801 41.5532C29.1081 41.5532 29.3776 41.8224 29.3776 42.1507C29.3776 42.479 29.1084 42.7397 28.7801 42.7397C28.4517 42.7397 28.1911 42.4787 28.1911 42.1507C28.1911 41.8227 28.4517 41.5532 28.7801 41.5532ZM22.5786 35.3603H35.7388C35.8483 35.3603 35.9573 35.3686 36.0668 35.3938C36.9336 35.5452 37.5226 36.2606 37.5226 37.1271C37.5226 37.245 37.5056 37.3545 37.489 37.4721L35.8314 46.9472C35.629 48.0747 34.5606 49.0002 33.4079 49.0002H20.5422C19.4652 49.0002 18.6406 48.1842 18.6406 47.1069C18.6406 46.9894 18.6489 46.8712 18.6658 46.7367L20.3317 37.2702C20.5169 36.2185 21.5096 35.3603 22.5786 35.3603Z" fill="#FF4446"/>
<path d="M19.4987 44.8518C19.8267 44.8518 20.0963 45.1127 20.0963 45.4407C20.0963 45.4829 20.088 45.5247 20.0793 45.5669L19.8353 46.9469C19.827 46.9974 19.827 47.0562 19.827 47.1066C19.827 47.2919 19.8775 47.4516 19.9784 47.5697C20.071 47.6873 20.2141 47.763 20.3907 47.7968C20.4329 47.8051 20.4834 47.8051 20.5338 47.8137L20.5421 49.0002H14.9798C14.5927 49.0002 14.1973 48.891 13.8776 48.6805C13.5579 48.4701 13.3138 48.1673 13.2129 47.7633L12.6744 45.5838C12.656 45.5081 12.6527 45.4295 12.6648 45.3526C12.6768 45.2756 12.7039 45.2017 12.7446 45.1353C12.7852 45.0688 12.8386 45.0111 12.9017 44.9653C12.9647 44.9196 13.0362 44.8867 13.112 44.8687C13.1541 44.8518 13.2046 44.8518 13.2548 44.8518H19.4987ZM18.7919 46.0383H14.0037L14.3656 47.4854C14.3825 47.5697 14.4413 47.6371 14.5256 47.6876C14.6517 47.7716 14.8115 47.8137 14.9798 47.8137H18.7664C18.6809 47.588 18.6381 47.3483 18.6402 47.1069C18.6402 46.9894 18.6485 46.8712 18.6655 46.7368L18.7919 46.0383ZM20.096 24.9765L19.8941 26.508C19.8436 26.836 19.5492 27.0634 19.2292 27.0212C18.9011 26.9707 18.6738 26.6763 18.7159 26.3479L19.0273 24.0762L18.8759 23.9417C18.322 23.4564 17.8848 22.8523 17.5968 22.1745C17.3023 21.5013 17.1592 20.7609 17.1592 19.9698V16.3768C17.1592 14.7696 17.7146 13.4314 18.6907 12.4806C19.6584 11.5381 21.0385 10.9999 22.6875 10.9999C24.3284 10.9999 25.7085 11.5381 26.6762 12.4806C27.6523 13.4314 28.2077 14.7696 28.2077 16.3768V19.9698C28.2077 20.7271 28.0729 21.4761 27.7701 22.1745C27.4822 22.8524 27.0449 23.4564 26.491 23.9417L26.3396 24.0762L26.651 26.3479C26.6711 26.5038 26.6296 26.6614 26.5353 26.7872C26.441 26.9129 26.3014 26.9969 26.1461 27.0212C26.0686 27.0317 25.9899 27.0267 25.9144 27.0065C25.839 26.9863 25.7683 26.9513 25.7064 26.9035C25.6446 26.8558 25.5929 26.7962 25.5542 26.7283C25.5156 26.6604 25.4909 26.5855 25.4814 26.508L25.2712 24.9765C25.0149 25.1549 24.738 25.3018 24.4466 25.4141C23.4619 25.8014 21.9053 25.8014 20.9209 25.4141C20.6293 25.302 20.3523 25.1551 20.096 24.9765ZM18.3627 15.9897C18.9768 16.1918 20.2981 16.3771 20.9797 14.7022C21.0094 14.6303 21.053 14.5649 21.108 14.5099C21.163 14.4548 21.2284 14.4112 21.3003 14.3815C21.3723 14.3518 21.4494 14.3366 21.5272 14.3367C21.605 14.3369 21.6821 14.3525 21.7539 14.3825C21.9222 14.4499 22.0145 14.5678 22.0819 14.7275C22.0902 14.7358 23.1675 17.8242 27.0212 16.8565V16.3771C27.0212 15.1066 26.6005 14.0545 25.8516 13.3308C25.1026 12.5988 24.0087 12.1861 22.6878 12.1861C21.3582 12.1861 20.2643 12.5988 19.5153 13.3305C18.8507 13.9785 18.4384 14.8875 18.3627 15.9897ZM27.0212 18.0765C23.933 18.7498 22.2837 17.2433 21.5179 16.1497C20.5501 17.454 19.2122 17.4202 18.3454 17.2097V19.9698C18.3454 20.6009 18.4633 21.1899 18.6821 21.7034C18.9022 22.2243 19.239 22.6877 19.6664 23.058L20.3818 23.6974C20.6932 23.9752 21.0129 24.1768 21.3579 24.3116C22.0478 24.5894 23.3186 24.5894 24.0084 24.3116C24.3534 24.1768 24.6731 23.9749 24.9928 23.6974L25.7082 23.058C26.1372 22.6795 26.4402 22.2669 26.659 21.7536C26.9113 21.2065 27.0209 20.5671 27.0209 19.9695L27.0212 18.0765Z" fill="#FF4446"/>
</svg>
