<svg width="60" height="60" viewBox="0 0 60 60" fill="none" xmlns="http://www.w3.org/2000/svg">
<mask id="mask0_217_35" style="mask-type:luminance" maskUnits="userSpaceOnUse" x="0" y="-1" width="60" height="61">
<path d="M59 58.9999V0.999878H1V58.9999H59Z" fill="white" stroke="white" stroke-width="2"/>
</mask>
<g mask="url(#mask0_217_35)">
<path d="M42.3504 22.8433C42.3504 24.4678 41.0336 25.7848 39.409 25.7848H36.4765" stroke="#FF4446" stroke-width="2" stroke-miterlimit="10" stroke-linecap="round" stroke-linejoin="round"/>
<path d="M16.0527 51.0399V47.6593" stroke="#FF4446" stroke-width="2" stroke-miterlimit="10" stroke-linecap="round" stroke-linejoin="round"/>
<path d="M43.9473 51.0399V47.6593" stroke="#FF4446" stroke-width="2" stroke-miterlimit="10" stroke-linecap="round" stroke-linejoin="round"/>
<path d="M16.7117 20.0909H7.30953C5.97008 20.0909 4.88434 21.1767 4.88434 22.5161V51.0399" stroke="#FF4446" stroke-width="2" stroke-miterlimit="10" stroke-linecap="round" stroke-linejoin="round"/>
<path d="M55.1156 51.0399V22.5161C55.1156 21.1767 54.0297 20.0909 52.6904 20.0909H43.2881" stroke="#FF4446" stroke-width="2" stroke-miterlimit="10" stroke-linecap="round" stroke-linejoin="round"/>
<path d="M34.9338 31.0396L38.5562 29.8208C40.8242 29.0578 42.3513 26.9319 42.3505 24.5392L42.3495 21.1651" stroke="#FF4446" stroke-width="2" stroke-miterlimit="10" stroke-linecap="round" stroke-linejoin="round"/>
<path d="M17.6506 21.1651L17.6495 24.5392C17.6487 26.9319 19.176 29.0579 21.4438 29.8208L25.0662 31.0396" stroke="#FF4446" stroke-width="2" stroke-miterlimit="10" stroke-linecap="round" stroke-linejoin="round"/>
<path d="M42.3467 14.5754C42.3194 7.7795 36.8023 2.27861 30 2.27861C23.1976 2.27861 17.6807 7.7795 17.6533 14.5754" stroke="#FF4446" stroke-width="2" stroke-miterlimit="10" stroke-linecap="round" stroke-linejoin="round"/>
<path d="M21.1929 14.3733H18.4704C17.4991 14.3733 16.7119 15.1605 16.7119 16.1318V19.61C16.7119 20.5811 17.4991 21.3684 18.4704 21.3684H21.3302" stroke="#FF4446" stroke-width="2" stroke-miterlimit="10" stroke-linecap="round" stroke-linejoin="round"/>
<path d="M38.6697 21.3684H41.5296C42.5007 21.3684 43.2881 20.5811 43.2881 19.61V16.1318C43.2881 15.1605 42.5007 14.3733 41.5296 14.3733H38.8071" stroke="#FF4446" stroke-width="2" stroke-miterlimit="10" stroke-linecap="round" stroke-linejoin="round"/>
<path d="M50.4281 51.0399V46.3778C50.4281 40.0153 45.9126 34.5479 39.6645 33.3454L36.7945 32.609C36.7651 32.6034 36.7368 32.5951 36.7079 32.5884C35.5799 32.3289 34.7717 31.3255 34.7717 30.1599V27.2202" stroke="#FF4446" stroke-width="2" stroke-miterlimit="10" stroke-linecap="round" stroke-linejoin="round"/>
<path d="M25.2282 27.2202V30.16C25.2282 31.3255 24.4201 32.3291 23.2921 32.5885C23.2631 32.5952 23.2348 32.6035 23.2054 32.6091L20.3354 33.3455C14.0874 34.5479 9.57184 40.0154 9.57184 46.378V51.04" stroke="#FF4446" stroke-width="2" stroke-miterlimit="10" stroke-linecap="round" stroke-linejoin="round"/>
<path d="M34.4023 27.198H32.1551C31.2978 27.198 30.6027 26.503 30.6027 25.6457C30.6027 24.7884 31.2978 24.0933 32.1551 24.0933H34.4023C35.2595 24.0933 35.9546 24.7884 35.9546 25.6457C35.9546 26.503 35.2595 27.198 34.4023 27.198Z" stroke="#FF4446" stroke-width="2" stroke-miterlimit="10" stroke-linecap="round" stroke-linejoin="round"/>
<path d="M35.6367 26.584C37.5419 24.9946 38.7668 22.617 38.8071 19.9509V14.3733C36.1665 13.0331 35.0894 10.8105 34.6551 9.45867C34.5299 9.06844 34.0006 9.01875 33.8015 9.37711C31.8882 12.8207 28.0789 14.3734 23.692 14.3734L21.1927 14.3733V19.9509C21.2654 24.7542 25.1793 28.6262 29.9999 28.6262C31.7732 28.6286 33.5056 28.093 34.9681 27.09" stroke="#FF4446" stroke-width="2" stroke-miterlimit="10" stroke-linecap="round" stroke-linejoin="round"/>
<path d="M34.926 31.0203L35.3033 33.1248C36.3647 39.0455 36.4111 45.1036 35.4405 51.0399" stroke="#FF4446" stroke-width="2" stroke-miterlimit="10" stroke-linecap="round" stroke-linejoin="round"/>
<path d="M23.8796 41.2194C23.9442 38.5042 24.2175 35.7981 24.6968 33.1249L25.0741 31.0204" stroke="#FF4446" stroke-width="2" stroke-miterlimit="10" stroke-linecap="round" stroke-linejoin="round"/>
<path d="M24.5595 51.0399C24.2503 49.149 24.0438 47.2427 23.941 45.3295" stroke="#FF4446" stroke-width="2" stroke-miterlimit="10" stroke-linecap="round" stroke-linejoin="round"/>
<path d="M35.8518 37.034C34.0947 37.9278 32.1066 38.4329 29.9999 38.4329C27.8933 38.4329 25.9052 37.9278 24.148 37.034" stroke="#FF4446" stroke-width="2" stroke-miterlimit="10" stroke-linecap="round" stroke-linejoin="round"/>
<path d="M40.6296 44.2292H44.4532C44.5806 44.2292 44.7068 44.2041 44.8246 44.1554C44.9423 44.1066 45.0493 44.0351 45.1394 43.945C45.2296 43.8548 45.301 43.7479 45.3498 43.6301C45.3986 43.5124 45.4236 43.3861 45.4236 43.2587V41.6308C45.4236 41.5034 45.3986 41.3772 45.3498 41.2594C45.301 41.1417 45.2296 41.0347 45.1394 40.9446C45.0493 40.8545 44.9423 40.783 44.8246 40.7342C44.7068 40.6854 44.5806 40.6603 44.4532 40.6603H40.6296C40.3722 40.6603 40.1253 40.7626 39.9433 40.9446C39.7613 41.1266 39.6591 41.3734 39.6591 41.6308V43.2587C39.6591 43.5161 39.7613 43.763 39.9433 43.945C40.1253 44.127 40.3722 44.2292 40.6296 44.2292Z" stroke="#FF4446" stroke-width="2" stroke-miterlimit="10" stroke-linecap="round" stroke-linejoin="round"/>
<path d="M13.5408 24.7785H11.1818C10.2927 24.7785 9.57202 25.4992 9.57202 26.3883V46.3779" stroke="#FF4446" stroke-width="2" stroke-miterlimit="10" stroke-linecap="round" stroke-linejoin="round"/>
<path d="M50.4282 46.3781V26.3884C50.4282 25.4993 49.7075 24.7786 48.8184 24.7786H46.4923" stroke="#FF4446" stroke-width="2" stroke-miterlimit="10" stroke-linecap="round" stroke-linejoin="round"/>
<path d="M53.8949 57.7213H6.105C3.21867 57.7213 0.878906 55.3814 0.878906 52.4951C0.878906 51.6914 1.53024 51.04 2.33391 51.04H57.6661C58.4697 51.04 59.1211 51.6914 59.1211 52.4951C59.1211 55.3814 56.7812 57.7213 53.8949 57.7213Z" stroke="#FF4446" stroke-width="2" stroke-miterlimit="10" stroke-linecap="round" stroke-linejoin="round"/>
<path d="M21.1259 51.04C21.1259 52.885 22.6215 54.3806 24.4665 54.3806H35.5334C37.3784 54.3806 38.874 52.885 38.874 51.04" stroke="#FF4446" stroke-width="2" stroke-miterlimit="10" stroke-linecap="round" stroke-linejoin="round"/>
</g>
</svg>
