<svg width="47" height="47" viewBox="0 0 47 47" fill="none" xmlns="http://www.w3.org/2000/svg">
<path opacity="0.812" fill-rule="evenodd" clip-rule="evenodd" d="M3 1H44C45.105 1 46 1.895 46 3V44C46 45.104 45.105 46 44 46H3C1.895 46 1 45.104 1 44V3C1 1.895 1.895 1 3 1Z" stroke="#F6F6F6"/>
<path opacity="0.812" fill-rule="evenodd" clip-rule="evenodd" d="M13.75 10C15.821 10 17.5 11.679 17.5 13.75C17.5 15.821 15.821 17.5 13.75 17.5C11.679 17.5 10 15.821 10 13.75C10 11.679 11.679 10 13.75 10Z" fill="white"/>
<path opacity="0.812" fill-rule="evenodd" clip-rule="evenodd" d="M24.25 10C26.321 10 28 11.679 28 13.75C28 15.821 26.321 17.5 24.25 17.5C22.179 17.5 20.5 15.821 20.5 13.75C20.5 11.679 22.179 10 24.25 10Z" fill="white"/>
<path opacity="0.812" fill-rule="evenodd" clip-rule="evenodd" d="M34.75 10C36.821 10 38.5 11.679 38.5 13.75C38.5 15.821 36.821 17.5 34.75 17.5C32.679 17.5 31 15.821 31 13.75C31 11.679 32.679 10 34.75 10Z" fill="white"/>
<path opacity="0.812" fill-rule="evenodd" clip-rule="evenodd" d="M34.75 20.5C36.821 20.5 38.5 22.178 38.5 24.25C38.5 26.321 36.821 28 34.75 28C32.679 28 31 26.321 31 24.25C31 22.178 32.679 20.5 34.75 20.5Z" fill="white"/>
<path opacity="0.812" fill-rule="evenodd" clip-rule="evenodd" d="M24.25 20.5C26.321 20.5 28 22.178 28 24.25C28 26.321 26.321 28 24.25 28C22.179 28 20.5 26.321 20.5 24.25C20.5 22.178 22.179 20.5 24.25 20.5Z" fill="white"/>
<path opacity="0.812" fill-rule="evenodd" clip-rule="evenodd" d="M13.75 20.5C15.821 20.5 17.5 22.178 17.5 24.25C17.5 26.321 15.821 28 13.75 28C11.679 28 10 26.321 10 24.25C10 22.178 11.679 20.5 13.75 20.5Z" fill="white"/>
<path opacity="0.812" fill-rule="evenodd" clip-rule="evenodd" d="M13.75 31C15.821 31 17.5 32.679 17.5 34.749C17.5 36.821 15.821 38.5 13.75 38.5C11.679 38.5 10 36.821 10 34.749C10 32.679 11.679 31 13.75 31Z" fill="white"/>
<path opacity="0.812" fill-rule="evenodd" clip-rule="evenodd" d="M24.25 31C26.321 31 28 32.679 28 34.749C28 36.821 26.321 38.5 24.25 38.5C22.179 38.5 20.5 36.821 20.5 34.749C20.5 32.679 22.179 31 24.25 31Z" fill="white"/>
<path opacity="0.812" fill-rule="evenodd" clip-rule="evenodd" d="M34.75 31C36.821 31 38.5 32.679 38.5 34.749C38.5 36.821 36.821 38.5 34.75 38.5C32.679 38.5 31 36.821 31 34.749C31 32.679 32.679 31 34.75 31Z" fill="white"/>
</svg>
